<svg id="Warstwa_1" data-name="Warstwa 1" xmlns="http://www.w3.org/2000/svg" width="265" height="122" viewBox="0 0 265 122"><defs><style>.cls-1{fill:#000000;}</style></defs><title>golem-black</title><path class="cls-1" d="M86.51,23.8a22.66,22.66,0,1,0,22.67,22.66A22.69,22.69,0,0,0,86.51,23.8Zm0,37.77a15.11,15.11,0,1,1,15.11-15.11A15.12,15.12,0,0,1,86.51,61.57Z"/><rect class="cls-1" x="124.66" width="7.55" height="67.99"/><polygon class="cls-1" points="208.89 24.93 208.89 67.99 216.45 67.99 216.45 32.48 231.55 32.48 231.55 67.99 239.11 67.99 239.11 32.48 254.22 32.48 254.22 67.99 261.77 67.99 261.77 24.93 208.89 24.93"/><path class="cls-1" d="M49.93,17.08,39,28a22.65,22.65,0,1,0-16.9,40.8V77a22.66,22.66,0,1,0,7.56,0V68.8A22.64,22.64,0,0,0,44.35,33.34L55.27,22.42ZM41,99.34A15.11,15.11,0,1,1,25.89,84.23,15.13,15.13,0,0,1,41,99.34ZM25.89,61.57A15.11,15.11,0,1,1,41,46.46,15.13,15.13,0,0,1,25.89,61.57Z"/><path class="cls-1" d="M170.37,23.8A22,22,0,0,0,147.7,46.46a23,23,0,0,0,6.1,16c4.17,4.34,9.89,6.64,16.57,6.64,7.17,0,14.61-3.49,18.5-8.69l-6-4.53c-2.5,3.34-7.63,5.67-12.46,5.67-7.86,0-13.47-4.59-14.81-11.71h36.71V46.08a22.65,22.65,0,0,0-6-15.67A21.57,21.57,0,0,0,170.37,23.8ZM155.75,42.3c1.62-6.61,7.18-10.95,14.62-10.95,7.16,0,12.49,4.35,13.95,10.95Z"/></svg>