<?xml version="1.0" encoding="utf-8"?>
<!-- Generator: Adobe Illustrator 22.0.1, SVG Export Plug-In . SVG Version: 6.00 Build 0)  -->
<svg version="1.1" id="Warstwa_1" xmlns="http://www.w3.org/2000/svg" xmlns:xlink="http://www.w3.org/1999/xlink" x="0px" y="0px"
	 width="251px" height="122px" viewBox="0 0 251 122" style="enable-background:new 0 0 251 122;" xml:space="preserve">
<style type="text/css">
	.st0{fill:#FFFFFF;}
</style>
<g>
	<path class="st0" d="M98.7,38.7c-7.3,0-13.2,5.9-13.2,13.2s5.9,13.2,13.2,13.2S112,59.2,112,51.9S106,38.7,98.7,38.7z M98.7,60.7
		c-4.9,0-8.8-4-8.8-8.8s4-8.8,8.8-8.8s8.8,4,8.8,8.8S103.6,60.7,98.7,60.7z"/>
	<rect x="121" y="24.8" class="st0" width="4.4" height="39.7"/>
	<polygon class="st0" points="170.1,39.4 170.1,64.5 174.6,64.5 174.6,43.8 183.4,43.8 183.4,64.5 187.8,64.5 187.8,43.8 
		196.6,43.8 196.6,64.5 201,64.5 201,39.4 	"/>
	<path class="st0" d="M77.4,34.8L71,41.2c-2.2-1.5-4.8-2.5-7.7-2.5c-7.3,0-13.2,5.9-13.2,13.2c0,6.5,4.8,12,11,13v4.8
		c-6.2,1.1-11,6.5-11,13c0,7.3,5.9,13.2,13.2,13.2s13.2-5.9,13.2-13.2c0-6.5-4.8-12-11-13V65c6.2-1.1,11-6.5,11-13
		c0-2.9-0.9-5.5-2.5-7.7l6.4-6.4L77.4,34.8z M72.2,82.8c0,4.9-4,8.8-8.8,8.8s-8.8-4-8.8-8.8s4-8.8,8.8-8.8S72.2,77.9,72.2,82.8z
		 M63.4,60.7c-4.9,0-8.8-4-8.8-8.8s4-8.8,8.8-8.8s8.8,4,8.8,8.8S68.2,60.7,63.4,60.7z"/>
	<path class="st0" d="M147.7,38.7c-3.7,0-7.1,1.4-9.6,3.9c-2.4,2.4-3.7,5.7-3.7,9.4c0,3.6,1.3,7,3.6,9.3c2.4,2.5,5.8,3.9,9.7,3.9
		c4.2,0,8.5-2,10.8-5.1l-3.5-2.6c-1.5,1.9-4.5,3.3-7.3,3.3c-4.6,0-7.9-2.7-8.6-6.8h21.4v-2.2c0-3.5-1.2-6.8-3.5-9.1
		C154.6,40.1,151.3,38.7,147.7,38.7z M139.1,49.5c0.9-3.9,4.2-6.4,8.5-6.4c4.2,0,7.3,2.5,8.1,6.4H139.1z"/>
</g>
</svg>
