<svg version="1.1" xmlns="http://www.w3.org/2000/svg" xmlns:xlink="http://www.w3.org/1999/xlink" x="0px" y="0px" viewBox="0 0 300 141.563" xml:space="preserve">
<g>
	<path fill="#000" d="M96.64,27.611c-14.5,0-26.297,11.797-26.297,26.297S82.14,80.205,96.64,80.205s26.297-11.797,26.297-26.297
		S111.14,27.611,96.64,27.611z M96.64,71.439c-9.666,0-17.531-7.864-17.531-17.531s7.865-17.531,17.531-17.531
		s17.531,7.864,17.531,17.531S106.306,71.439,96.64,71.439z"></path>
	<rect x="140.906" fill="#000" width="8.766" height="78.89"></rect>
	<polygon fill="#000" points="238.641,28.926 238.641,78.89 247.407,78.89 247.407,37.692 264.938,37.692 264.938,78.89 
		273.703,78.89 273.703,37.692 291.234,37.692 291.234,78.89 300,78.89 300,28.926 	"></polygon>
	<path fill="#000" d="M54.188,19.818L41.52,32.486c-4.3-3.065-9.553-4.875-15.223-4.875C11.797,27.611,0,39.408,0,53.908
		c0,13.006,9.494,23.831,21.914,25.924v9.51C9.494,91.436,0,102.26,0,115.267c0,14.5,11.797,26.297,26.297,26.297
		s26.297-11.797,26.297-26.297c0-13.006-9.494-23.831-21.914-25.924v-9.51c12.42-2.093,21.914-12.918,21.914-25.924
		c0-5.671-1.81-10.923-4.875-15.223l12.668-12.668L54.188,19.818z M43.828,115.267c0,9.667-7.865,17.531-17.531,17.531
		s-17.531-7.864-17.531-17.531s7.865-17.531,17.531-17.531S43.828,105.6,43.828,115.267z M26.297,71.439
		c-9.666,0-17.531-7.864-17.531-17.531s7.865-17.531,17.531-17.531s17.531,7.864,17.531,17.531S35.963,71.439,26.297,71.439z"></path>
	<path fill="#000" d="M193.937,27.611c-7.455,0-14.213,2.729-19.03,7.683c-4.686,4.82-7.267,11.43-7.267,18.614
		c0,7.224,2.515,13.827,7.08,18.591c4.831,5.041,11.476,7.705,19.216,7.705c8.323,0,16.954-4.051,21.476-10.08l-7.012-5.259
		c-2.903,3.871-8.851,6.574-14.463,6.574c-9.109,0-15.622-5.316-17.175-13.587h42.595V53.47c0-6.978-2.467-13.436-6.947-18.183
		C207.739,30.337,201.179,27.611,193.937,27.611z M176.973,49.087c1.888-7.677,8.34-12.71,16.964-12.71
		c8.309,0,14.495,5.046,16.19,12.71H176.973z"></path>
</g>
</svg>