<?xml version="1.0" standalone="no"?>
<!DOCTYPE svg PUBLIC "-//W3C//DTD SVG 20010904//EN"
 "http://www.w3.org/TR/2001/REC-SVG-20010904/DTD/svg10.dtd">
<svg version="1.0" xmlns="http://www.w3.org/2000/svg"
 width="141.000000pt" height="141.000000pt" viewBox="0 0 141.000000 141.000000"
 preserveAspectRatio="xMidYMid meet">
<metadata>
Created by potrace 1.10, written by Peter Selinger 2001-2011
</metadata>
<g transform="translate(0.000000,141.000000) scale(0.100000,-0.100000)"
fill="#000000" stroke="none">
<path d="M895 1243 l-60 -63 -49 25 c-138 70 -301 -23 -314 -180 -8 -103 69
-208 169 -230 29 -7 29 -7 29 -85 0 -78 0 -78 -29 -85 -100 -22 -177 -127
-169 -229 19 -223 309 -280 416 -82 22 41 22 151 0 192 -26 48 -79 93 -130
112 l-48 17 0 75 0 75 48 17 c51 19 104 64 130 112 26 48 23 152 -6 200 l-23
39 63 64 c53 54 60 65 48 76 -13 11 -24 3 -75 -50z m-125 -75 c132 -67 132
-249 0 -315 -56 -29 -104 -29 -160 0 -132 66 -132 248 0 315 24 12 60 22 80
22 20 0 56 -10 80 -22z m0 -600 c132 -67 132 -249 0 -316 -56 -28 -104 -28
-160 0 -132 67 -132 249 0 316 24 12 60 22 80 22 20 0 56 -10 80 -22z"/>
</g>
</svg>
