<?xml version="1.0" encoding="UTF-8"?>
<svg width="160px" height="160px" viewBox="0 0 120 120" version="1.1" xmlns="http://www.w3.org/2000/svg" xmlns:xlink="http://www.w3.org/1999/xlink">
    <!-- Generator: Sketch 49 (51002) - http://www.bohemiancoding.com/sketch -->
    <title>Group 9</title>
    <desc>Created with Sketch.</desc>
    <defs></defs>
    <g id="Elements" stroke="none" stroke-width="1" fill="none" fill-rule="evenodd">
        <g id="new-golem-instance" transform="translate(-170.000000, -196.000000)">
            <g id="Group-13-Copy-3" transform="translate(60.000000, 151.000000)">
                <g id="Group-9" transform="translate(110.000000, 45.000000)">
                    <circle id="Oval-4" fill="#E3EBEF" cx="60" cy="60" r="60"></circle>
                    <g id="padlock" transform="translate(41.000000, 31.000000)" fill="#4E4E4E" fill-rule="nonzero">
                        <path d="M37.8356999,25.0501583 L35.9547143,25.0501583 L35.9547143,16.6098 C35.9547143,7.45106924 28.5732413,0 19.4999429,0 C10.4266445,0 3.0452857,7.45106924 3.0452857,16.6098 L3.0452857,25.0501583 L1.16430008,25.0501583 C0.521360766,25.0501583 0,25.5763195 0,26.225436 L0,48.5470694 C0,54.3108737 4.64532785,59 10.3552956,59 L28.6447044,59 C34.3546721,59 39,54.3108737 39,48.5470694 L39,26.225436 C39,25.5763195 38.4787534,25.0501583 37.8356999,25.0501583 Z M5.37400002,16.6098 C5.37400002,8.74722802 11.7109249,2.35055537 19.5000571,2.35055537 C27.2891892,2.35055537 33.626,8.74734326 33.626,16.6098 L33.626,25.0501583 L32.0930829,25.0501583 L32.0930829,16.6187883 C32.0930829,9.6094133 26.4437332,3.90679865 19.5000571,3.90679865 C12.5562668,3.90679865 6.90691711,9.6094133 6.90691711,16.6187883 L6.90691711,25.0501583 L5.37400002,25.0501583 L5.37400002,16.6098 Z M29.7644827,16.6187883 L29.7644827,25.0501583 L9.23551727,25.0501583 L9.23551727,16.6187883 C9.23551727,10.9055721 13.8402048,6.25746925 19.4999429,6.25746925 C25.1596811,6.25746925 29.7644827,10.9054568 29.7644827,16.6187883 Z M36.6712857,48.5470694 C36.6712857,53.0147149 33.0705059,56.6493294 28.6447044,56.6493294 L10.3552956,56.6493294 C5.92937995,56.6493294 2.32871431,53.0145996 2.32871431,48.5470694 L2.32871431,27.4007137 L36.6713998,27.4007137 L36.6713998,48.5470694 L36.6712857,48.5470694 Z" id="Shape"></path>
                        <path d="M20.0001278,35 C17.2431997,35 15,37.0549132 15,39.5806953 C15,40.946695 15.6778556,42.242199 16.8082115,43.1052438 L16.8082115,48.8056724 C16.8082115,49.4653104 17.3919879,50 18.1118979,50 L21.8881021,50 C22.6080121,50 23.1917885,49.4653104 23.1917885,48.8056724 L23.1917885,43.1052438 C24.3222722,42.242199 25,40.946695 25,39.5806953 C25.0002556,37.0549132 22.7571838,35 20.0001278,35 Z M21.2212394,41.46581 C20.826516,41.6811613 20.5845434,42.0709953 20.5845434,42.4919785 L20.5845434,47.6112278 L19.4157122,47.6112278 L19.4157122,42.4919785 C19.4157122,42.0711124 19.1738675,41.6811613 18.7790163,41.46581 C18.045429,41.0655539 17.6075008,40.3609487 17.6075008,39.5808124 C17.6075008,38.3720812 18.6808467,37.3887722 20.0002556,37.3887722 C21.3196646,37.3887722 22.3930105,38.3720812 22.3930105,39.5808124 C22.3928827,40.3608316 21.9548267,41.0655539 21.2212394,41.46581 Z" id="Shape"></path>
                        <path d="M15.7963036,28 L3.20369642,28 C2.53900201,28 2,28.447691 2,29 C2,29.552309 2.53900201,30 3.20369642,30 L15.7961856,30 C16.460998,30 17,29.552309 17,29 C17,28.447691 16.460998,28 15.7963036,28 Z" id="Shape"></path>
                        <path d="M19.2549492,28 L18.7450508,28 C18.3336255,28 18,28.447691 18,29 C18,29.552309 18.3335525,30 18.7450508,30 L19.2549492,30 C19.6663745,30 20,29.552309 20,29 C20,28.447691 19.6663745,28 19.2549492,28 Z" id="Shape"></path>
                    </g>
                </g>
            </g>
        </g>
    </g>
</svg>