<?xml version="1.0" encoding="UTF-8"?>
<svg width="160px" height="160px" viewBox="0 0 160 160" version="1.1" xmlns="http://www.w3.org/2000/svg" xmlns:xlink="http://www.w3.org/1999/xlink">
    <!-- Generator: Sketch 48.2 (47327) - http://www.bohemiancoding.com/sketch -->
    <title>onboarding-locker-locked</title>
    <desc>Created with Sketch.</desc>
    <defs>
        <polygon id="path-1" points="0 0 52.045 0 52.045 77.9995 0 77.9995"></polygon>
    </defs>
    <g id="pass-enter" stroke="none" stroke-width="1" fill="none" fill-rule="evenodd" transform="translate(-150.000000, -64.000000)">
        <g id="onboarding-locker-locked" transform="translate(150.000000, 64.000000)">
            <g id="Group-3">
                <circle id="Oval-4" fill="#E3EBEF" cx="80" cy="80" r="80"></circle>
                <g id="Page-1" transform="translate(54.000000, 41.000000)">
                    <g id="Group-3">
                        <mask id="mask-2" fill="white">
                            <use xlink:href="#path-1"></use>
                        </mask>
                        <g id="Clip-2"></g>
                        <path d="M48.9378,64.1805 C48.9378,70.0875 44.1328,74.8925 38.2268,74.8925 L13.8188,74.8925 C7.9128,74.8925 3.1078,70.0865 3.1078,64.1805 L3.1078,36.2245 L48.9378,36.2245 L48.9378,64.1805 Z M39.7208,21.9705 L39.7208,33.1175 L12.3248,33.1175 L12.3248,21.9705 C12.3248,14.4175 18.4698,8.2725 26.0228,8.2725 C33.5758,8.2725 39.7208,14.4175 39.7208,21.9705 Z M7.1718,21.9585 C7.1718,11.5645 15.6278,3.1075 26.0228,3.1075 C36.4168,3.1075 44.8738,11.5645 44.8738,21.9585 L44.8738,33.1175 L42.8288,33.1175 L42.8288,21.9705 C42.8288,12.7035 35.2898,5.1645 26.0228,5.1645 C16.7558,5.1645 9.2168,12.7035 9.2168,21.9705 L9.2168,33.1175 L7.1718,33.1175 L7.1718,21.9585 Z M50.4918,33.1175 L47.9818,33.1175 L47.9818,21.9585 C47.9818,9.8505 38.1308,-0.0005 26.0228,-0.0005 C13.9148,-0.0005 4.0638,9.8505 4.0638,21.9585 L4.0638,33.1175 L1.5538,33.1175 C0.6958,33.1175 -0.0002,33.8125 -0.0002,34.6705 L-0.0002,64.1805 C-0.0002,71.8005 6.1988,77.9995 13.8188,77.9995 L38.2268,77.9995 C45.8468,77.9995 52.0458,71.8005 52.0458,64.1805 L52.0458,34.6705 C52.0458,33.8125 51.3498,33.1175 50.4918,33.1175 Z" id="Fill-1" fill="#4E4E4E" mask="url(#mask-2)"></path>
                    </g>
                    <path d="M27.4778,53.5291 C27.0078,53.8091 26.7188,54.3171 26.7188,54.8641 L26.7188,61.5241 L25.3258,61.5241 L25.3258,54.8641 C25.3258,54.3171 25.0378,53.8091 24.5668,53.5291 C23.6928,53.0081 23.1708,52.0921 23.1708,51.0771 C23.1708,49.5051 24.4508,48.2251 26.0228,48.2251 C27.5958,48.2251 28.8748,49.5051 28.8748,51.0771 C28.8738,52.0921 28.3528,53.0081 27.4778,53.5291 M26.0228,45.1181 C22.7368,45.1181 20.0628,47.7911 20.0628,51.0771 C20.0628,52.8541 20.8718,54.5401 22.2188,55.6621 L22.2188,63.0781 C22.2188,63.9361 22.9148,64.6321 23.7718,64.6321 L28.2728,64.6321 C29.1308,64.6321 29.8268,63.9361 29.8268,63.0781 L29.8268,55.6621 C31.1738,54.5401 31.9818,52.8541 31.9818,51.0771 C31.9818,47.7911 29.3088,45.1181 26.0228,45.1181" id="Fill-4" fill="#4E4E4E"></path>
                    <path d="M22.5291,37.6741 L6.2741,37.6741 C5.4161,37.6741 4.7201,38.3701 4.7201,39.2281 C4.7201,40.0861 5.4161,40.7821 6.2741,40.7821 L22.5291,40.7821 C23.3871,40.7821 24.0831,40.0861 24.0831,39.2281 C24.0831,38.3701 23.3871,37.6741 22.5291,37.6741" id="Fill-6" fill="#4E4E4E"></path>
                    <path d="M28.1497,37.6741 L27.0867,37.6741 C26.2287,37.6741 25.5327,38.3701 25.5327,39.2281 C25.5327,40.0861 26.2277,40.7821 27.0867,40.7821 L28.1497,40.7821 C29.0077,40.7821 29.7037,40.0861 29.7037,39.2281 C29.7037,38.3701 29.0077,37.6741 28.1497,37.6741" id="Fill-8" fill="#4E4E4E"></path>
                </g>
            </g>
        </g>
    </g>
</svg>