<?xml version="1.0" encoding="UTF-8"?>
<svg width="82px" height="24px" viewBox="0 0 82 24" version="1.1" xmlns="http://www.w3.org/2000/svg" xmlns:xlink="http://www.w3.org/1999/xlink">
    <!-- Generator: Sketch 48.2 (47327) - http://www.bohemiancoding.com/sketch -->
    <title>topbar-maintnet-logo-small</title>
    <desc>Created with Sketch.</desc>
    <defs>
        <polygon id="path-1" points="0.0003 0.992 11.6733 0.992 11.6733 24.9997 0.0003 24.9997"></polygon>
        <polygon id="path-3" points="0 25.0078 81.643 25.0078 81.643 0.9998 0 0.9998"></polygon>
    </defs>
    <g id="settings---mainnet" stroke="none" stroke-width="1" fill="none" fill-rule="evenodd" transform="translate(-24.000000, -41.000000)">
        <g id="topbar-maintnet-logo-small" transform="translate(24.000000, 40.000000)">
            <g id="Page-1">
                <g id="Group-3" transform="translate(0.000000, 0.007800)">
                    <mask id="mask-2" fill="white">
                        <use xlink:href="#path-1"></use>
                    </mask>
                    <g id="Clip-2"></g>
                    <path d="M5.0833,11.1717 C3.2153,11.1717 1.6943,9.6207 1.6943,7.7147 C1.6943,5.8087 3.2153,4.2577 5.0833,4.2577 C6.9523,4.2577 8.4723,5.8087 8.4723,7.7147 C8.4723,9.6207 6.9523,11.1717 5.0833,11.1717 M8.4723,19.8147 C8.4723,21.7207 6.9523,23.2717 5.0833,23.2717 C3.2153,23.2717 1.6943,21.7207 1.6943,19.8147 C1.6943,17.9077 3.2153,16.3577 5.0833,16.3577 C6.9523,16.3577 8.4723,17.9077 8.4723,19.8147 M10.1663,7.7147 C10.1663,6.5967 9.8163,5.5607 9.2243,4.7127 L11.6733,2.2147 L10.4753,0.9917 L8.0263,3.4897 C7.1943,2.8857 6.1793,2.5287 5.0833,2.5287 C2.2803,2.5287 0.0003,4.8557 0.0003,7.7147 C0.0003,10.2787 1.8353,12.4137 4.2363,12.8267 L4.2363,14.7017 C1.8353,15.1147 0.0003,17.2497 0.0003,19.8147 C0.0003,22.6737 2.2803,24.9997 5.0833,24.9997 C7.8863,24.9997 10.1663,22.6737 10.1663,19.8147 C10.1663,17.2497 8.3313,15.1147 5.9303,14.7017 L5.9303,12.8267 C8.3313,12.4147 10.1663,10.2797 10.1663,7.7147" id="Fill-1" fill="#FFFFFF" mask="url(#mask-2)"></path>
                </g>
                <path d="M30.6116,11.4852 C31.1666,11.4852 31.5676,11.4092 31.8156,11.2572 C32.0636,11.1052 32.1876,10.8582 32.1876,10.5172 C32.1876,10.1752 32.0596,9.9222 31.8036,9.7572 C31.5476,9.5912 31.1586,9.5092 30.6356,9.5092 L28.7716,9.5092 L28.7716,11.4852 L30.6116,11.4852 Z M30.5956,8.8372 C31.0706,8.8372 31.4196,8.7652 31.6436,8.6212 C31.8676,8.4772 31.9796,8.2502 31.9796,7.9412 C31.9796,7.6532 31.8626,7.4432 31.6276,7.3132 C31.3926,7.1822 31.0166,7.1172 30.4996,7.1172 L28.7716,7.1172 L28.7716,8.8372 L30.5956,8.8372 Z M27.9956,12.1572 L27.9956,6.4452 L30.5396,6.4452 C32.0386,6.4452 32.7876,6.9322 32.7876,7.9072 C32.7876,8.2152 32.7096,8.4732 32.5516,8.6772 C32.3946,8.8822 32.1606,9.0332 31.8516,9.1292 C32.6256,9.3852 33.0116,9.8422 33.0116,10.4992 C33.0116,11.0382 32.8116,11.4492 32.4116,11.7332 C32.0116,12.0152 31.4246,12.1572 30.6516,12.1572 L27.9956,12.1572 Z" id="Fill-4" fill="#5A6EAA"></path>
                <polygon id="Fill-6" fill="#5A6EAA" points="36.2117 12.157 36.2117 6.445 40.7557 6.445 40.7557 7.141 37.0037 7.141 37.0037 8.861 40.5717 8.861 40.5717 9.557 37.0037 9.557 37.0037 11.461 40.9237 11.461 40.7877 12.157"></polygon>
                <polygon id="Fill-8" fill="#5A6EAA" points="45.7878 12.157 45.7878 7.141 43.4198 7.141 43.4198 6.445 48.9478 6.445 48.9478 7.141 46.5798 7.141 46.5798 12.157"></polygon>
                <path d="M53.2278,7.2933 L51.9638,9.9253 L54.4918,9.9253 L53.2278,7.2933 Z M55.5398,12.1573 L54.7878,10.5813 L51.6598,10.5813 L50.9158,12.1573 L50.0678,12.1573 L52.8358,6.4453 L53.6518,6.4453 L56.4198,12.1573 L55.5398,12.1573 Z" id="Fill-10" fill="#5A6EAA"></path>
                <polygon id="Fill-12" fill="#5A6EAA" points="33.908 20.6624 33.908 16.0784 31.668 20.6624 30.996 20.6624 28.756 16.1264 28.756 20.6624 27.996 20.6624 27.996 14.9504 28.98 14.9504 31.356 19.8224 33.724 14.9504 34.676 14.9504 34.676 20.6624"></polygon>
                <path d="M40.7317,15.7986 L39.4677,18.4306 L41.9957,18.4306 L40.7317,15.7986 Z M43.0437,20.6626 L42.2917,19.0866 L39.1637,19.0866 L38.4197,20.6626 L37.5717,20.6626 L40.3397,14.9506 L41.1557,14.9506 L43.9237,20.6626 L43.0437,20.6626 Z" id="Fill-14" fill="#5A6EAA"></path>
                <mask id="mask-4" fill="white">
                    <use xlink:href="#path-3"></use>
                </mask>
                <g id="Clip-17"></g>
                <polygon id="Fill-16" fill="#5A6EAA" mask="url(#mask-4)" points="46.82 20.6628 47.612 20.6628 47.612 14.9508 46.82 14.9508"></polygon>
                <polygon id="Fill-18" fill="#5A6EAA" mask="url(#mask-4)" points="55.7239 20.6624 51.9239 16.0704 51.9239 20.6624 51.1479 20.6624 51.1479 14.9504 51.9159 14.9504 55.7159 19.5424 55.7159 14.9504 56.4919 14.9504 56.4919 20.6624"></polygon>
                <polygon id="Fill-19" fill="#5A6EAA" mask="url(#mask-4)" points="64.6038 20.6624 60.8038 16.0704 60.8038 20.6624 60.0278 20.6624 60.0278 14.9504 60.7958 14.9504 64.5958 19.5424 64.5958 14.9504 65.3718 14.9504 65.3718 20.6624"></polygon>
                <polygon id="Fill-20" fill="#5A6EAA" mask="url(#mask-4)" points="68.9075 20.6624 68.9075 14.9504 73.4515 14.9504 73.4515 15.6464 69.6995 15.6464 69.6995 17.3664 73.2675 17.3664 73.2675 18.0624 69.6995 18.0624 69.6995 19.9664 73.6195 19.9664 73.4835 20.6624"></polygon>
                <polygon id="Fill-21" fill="#5A6EAA" mask="url(#mask-4)" points="78.4832 20.6624 78.4832 15.6464 76.1152 15.6464 76.1152 14.9504 81.6432 14.9504 81.6432 15.6464 79.2752 15.6464 79.2752 20.6624"></polygon>
            </g>
        </g>
    </g>
</svg>