<?xml version="1.0" encoding="UTF-8"?>
<svg width="161px" height="160px" viewBox="0 0 161 160" version="1.1" xmlns="http://www.w3.org/2000/svg" xmlns:xlink="http://www.w3.org/1999/xlink">
    <!-- Generator: Sketch 48.2 (47327) - http://www.bohemiancoding.com/sketch -->
    <title>mainnet-icon-large</title>
    <desc>Created with Sketch.</desc>
    <defs></defs>
    <g id="onboarding-2-main-net-info" stroke="none" stroke-width="1" fill="none" fill-rule="evenodd" transform="translate(-149.000000, -64.000000)">
        <g id="mainnet-icon-large" transform="translate(149.000000, 64.000000)">
            <g>
                <ellipse id="Oval" fill="#243048" fill-rule="nonzero" cx="80.5" cy="80" rx="80.5" ry="80"></ellipse>
                <g id="Group" transform="translate(43.268750, 30.000000)">
                    <g id="Shape_1_4_" transform="translate(20.125000, 0.000000)" fill="#FFFFFF">
                        <path d="M33.60875,22 C33.60875,18.3 32.501875,14.9 30.489375,12.2 L38.539375,4 L34.615,0 L26.565,8.2 C23.848125,6.2 20.426875,5 16.905,5 C7.6475,5 0.100625,12.6 0.100625,22 C0.100625,30.4 6.138125,37.4 14.0875,38.8 L14.0875,44.9 C6.138125,46.3 0.100625,53.2 0.100625,61.7 C0.100625,71.1 7.6475,78.7 16.905,78.7 C26.1625,78.7 33.709375,71.1 33.709375,61.7 C33.709375,53.3 27.671875,46.3 19.7225,44.9 L19.7225,38.8 C27.57125,37.4 33.60875,30.4 33.60875,22 Z M28.074375,61.7 C28.074375,67.9 23.043125,73 16.905,73 C10.766875,73 5.735625,67.9 5.735625,61.7 C5.735625,55.5 10.766875,50.4 16.905,50.4 C23.043125,50.4 28.074375,55.4 28.074375,61.7 Z M16.905,33.4 C10.766875,33.4 5.735625,28.3 5.735625,22.1 C5.735625,15.9 10.766875,10.8 16.905,10.8 C23.043125,10.8 28.074375,15.9 28.074375,22.1 C28.074375,28.3 23.043125,33.4 16.905,33.4 Z" id="Shape"></path>
                    </g>
                    <g transform="translate(0.000000, 92.000000)" fill="#5B6FAB" fill-rule="nonzero" id="Shape">
                        <polygon points="8.4525 8 8.4525 1.7 5.333125 8 4.4275 8 1.308125 1.8 1.308125 8 0.301875 8 0.301875 0.2 1.61 0.2 4.83 6.9 8.05 0.2 9.358125 0.2 9.358125 8"></polygon>
                        <path d="M21.030625,8 L20.024375,5.8 L15.6975,5.8 L14.69125,8 L13.48375,8 L17.3075,0.2 L18.414375,0.2 L22.238125,8 L21.030625,8 Z M17.91125,1.4 L16.1,5 L19.621875,5 L17.91125,1.4 Z"></path>
                        <polygon points="26.263125 8 26.263125 0.2 27.37 0.2 27.37 8"></polygon>
                        <polygon points="38.43875 8 33.20625 1.7 33.20625 8 32.2 8 32.2 0.2 33.20625 0.2 38.43875 6.5 38.43875 0.2 39.545625 0.2 39.545625 8"></polygon>
                        <polygon points="50.715 8 45.4825 1.7 45.4825 8 44.375625 8 44.375625 0.2 45.4825 0.2 50.715 6.5 50.715 0.2 51.821875 0.2 51.821875 8"></polygon>
                        <polygon points="56.55125 8 56.55125 0.2 62.79 0.2 62.79 1.2 57.658125 1.2 57.658125 3.6 62.58875 3.6 62.58875 4.6 57.658125 4.6 57.658125 7.2 63.091875 7.2 62.890625 8.2 56.55125 8.2"></polygon>
                        <polygon points="69.733125 8 69.733125 1.1 66.513125 1.1 66.513125 0.1 74.160625 0.1 74.160625 1.1 70.940625 1.1 70.940625 8"></polygon>
                    </g>
                </g>
            </g>
        </g>
    </g>
</svg>