<svg id="Warstwa_1" data-name="Warstwa 1" xmlns="http://www.w3.org/2000/svg" xmlns:xlink="http://www.w3.org/1999/xlink" width="512" height="512" viewBox="0 0 512 512"><defs><style>.cls-1{fill:#001d57;}.cls-2{opacity:0.1;fill:url(#Gradient_bez_nazwy_17);}</style><linearGradient id="Gradient_bez_nazwy_17" x1="-1.39" y1="243.44" x2="364.23" y2="243.44" gradientUnits="userSpaceOnUse"><stop offset="0" stop-color="#fff"/><stop offset="1" stop-color="#fff" stop-opacity="0.2"/></linearGradient></defs><title>mainnet-testnet</title><circle class="cls-1" cx="248.26" cy="268.71" r="34.84"/><polygon class="cls-1" points="246.14 360.13 242.82 370.45 249.49 370.45 246.14 360.13"/><circle class="cls-1" cx="248.26" cy="146.78" r="34.84"/><path class="cls-1" d="M256,0C114.62,0,0,114.62,0,256S114.62,512,256,512,512,397.38,512,256,397.38,0,256,0ZM222.38,425.77h-5.74l-12.37-19.41v19.41h-5.69V397.1h5.86l12.24,19.58V397.1h5.7Zm-5.45-45.57h-5.37l-7.45-18.06v20.48h-5.53V354H206l8.19,19.53L222.46,354h7.45v28.67h-5.53V362.14Zm26,45.57H227.83V397.1h14.74v5.2h-9v6.39h7.7v5.12h-7.7v6.8h9.34Zm-10-43.15L243.11,354h6.06l10.15,28.67h-5.81l-2.5-7.37h-9.75l-2.5,7.37Zm31.86,19.68h-6.67v23.47h-5.78V402.3h-6.71v-5.2h19.16Zm3.36-19.68H262.4V354h5.77Zm29.25,0h-5.74l-12.37-19.41v19.41h-5.69V354h5.86l12.24,19.58V354h5.7Zm3.09-235.84A52.32,52.32,0,0,1,257,198.29v18.9a52.26,52.26,0,1,1-17.42,0v-18.9a52.25,52.25,0,1,1,39-94.08L303.68,79,316,91.35l-25.17,25.18A51.93,51.93,0,0,1,300.51,146.78Z"/><path class="cls-2" d="M364.23,24.41C236.44-36.1,83.8,18.44,23.3,146.22s-6,280.42,121.8,340.93Z"/></svg>