<?xml version="1.0" encoding="UTF-8"?>
<svg width="186px" height="172px" viewBox="0 0 186 172" version="1.1" xmlns="http://www.w3.org/2000/svg" xmlns:xlink="http://www.w3.org/1999/xlink">
    <!-- Generator: Sketch 48.2 (47327) - http://www.bohemiancoding.com/sketch -->
    <title>Group 4</title>
    <desc>Created with Sketch.</desc>
    <defs></defs>
    <g id="onboarding-pass" stroke="none" stroke-width="1" fill="none" fill-rule="evenodd" transform="translate(-124.000000, -52.000000)">
        <g id="Group-3" transform="translate(112.000000, 40.000000)">
            <g id="Group-4">
                <circle id="Oval-4" fill="#E3EBEF" cx="118" cy="104" r="80"></circle>
                <g id="pencil" transform="translate(80.000000, 66.000000)" fill="#4E4E4E" fill-rule="nonzero">
                    <circle id="Oval" cx="64.5499365" cy="74.3071905" r="1.26561111"></circle>
                    <circle id="Oval" cx="69.6125317" cy="74.3071905" r="1.26561111"></circle>
                    <circle id="Oval" cx="74.6752778" cy="74.3071905" r="1.26561111"></circle>
                    <path d="M49.3616984,73.0415794 L36.7049841,73.0415794 C36.0063571,73.0415794 35.439373,73.6085635 35.439373,74.3071905 C35.439373,75.0058175 36.0063571,75.5728016 36.7049841,75.5728016 L49.3616984,75.5728016 C50.0603254,75.5728016 50.6273095,75.0058175 50.6273095,74.3071905 C50.6273095,73.6085635 50.0603254,73.0415794 49.3616984,73.0415794 Z" id="Shape"></path>
                    <path d="M59.4871905,73.0415794 L54.4244444,73.0415794 C53.7258175,73.0415794 53.1588333,73.6085635 53.1588333,74.3071905 C53.1588333,75.0058175 53.7258175,75.5728016 54.4244444,75.5728016 L59.4871905,75.5728016 C60.1858175,75.5728016 60.7528016,75.0058175 60.7528016,74.3071905 C60.7528016,73.6085635 60.1858175,73.0415794 59.4871905,73.0415794 Z" id="Shape"></path>
                    <path d="M75.5061508,11.4574524 C75.5061508,8.4147381 74.3215159,5.55433333 72.1698413,3.40265873 C70.0181667,1.25098413 67.1577619,0.0663492063 64.1151984,0.0663492063 C61.0726349,0.0663492063 58.2120794,1.25098413 56.0604048,3.40265873 C56.0261746,3.43688889 55.9949603,3.47292857 55.9655556,3.50987302 C55.930119,3.53837302 55.8957381,3.56868254 55.8628651,3.60155556 L50.6137381,8.85053175 C50.6095159,8.85460317 50.6049921,8.85807143 50.6009206,8.86214286 C50.5968492,8.86621429 50.593381,8.87088889 50.5893095,8.87496032 L47.0326905,12.4314286 C47.0287698,12.4351984 47.0245476,12.4383651 47.0207778,12.4421349 C47.0170079,12.4459048 47.0138413,12.450127 47.0100714,12.4540476 L5.93704762,53.5261667 C5.78384127,53.6805794 5.67255556,53.8704286 5.61434921,54.0804841 L0.0582063492,73.9283968 C0.0573015873,73.9314127 0.056547619,73.9342778 0.0556428571,73.9372937 C0.0475,73.9641349 0.0411666667,73.9912778 0.0348333333,74.0184206 C0.0318174603,74.0313889 0.028047619,74.0439048 0.0253333333,74.0570238 C0.0211111111,74.0778333 0.018547619,74.0987937 0.0153809524,74.119754 C0.0141746032,74.127746 0.012968254,74.1355873 0.0119126984,74.1435794 C0.0110079365,74.1500635 0.0098015873,74.1565476 0.00904761905,74.1630317 C0.00844444444,74.1684603 0.00723809524,74.1737381 0.00663492063,74.1793175 C-0.00196031746,74.2645159 -0.00196031746,74.3503175 0.00663492063,74.4353651 C0.00723809524,74.4407937 0.00829365079,74.4462222 0.00904761905,74.4516508 C0.0091984127,74.4531587 0.0095,74.4548175 0.0098015873,74.4563254 C0.0108571429,74.4647698 0.0122142857,74.4729127 0.0134206349,74.4813571 C0.0168888889,74.5068413 0.0202063492,74.5323254 0.0253333333,74.5575079 C0.0278968254,74.5704762 0.0316666667,74.5831429 0.0348333333,74.5961111 C0.0360396825,74.6015397 0.037547619,74.6069683 0.0387539683,74.6123968 C0.0408650794,74.6206905 0.0425238095,74.6289841 0.0447857143,74.637127 C0.0484047619,74.6505476 0.0515714286,74.6638175 0.0556428571,74.6770873 C0.0601666667,74.6917143 0.0657460317,74.7057381 0.0707222222,74.7202143 C0.0791666667,74.7447937 0.0874603175,74.7692222 0.0975634921,74.7933492 C0.103595238,74.8078254 0.110833333,74.8216984 0.11731746,74.8360238 C0.12802381,74.8590952 0.138428571,74.8823175 0.150492063,74.9049365 C0.154563492,74.9124762 0.159087302,74.9195635 0.16315873,74.9269524 C0.16768254,74.9349444 0.172809524,74.9427857 0.177484127,74.9507778 C0.189396825,74.9708333 0.200706349,74.9908889 0.213825397,75.0104921 C0.224531746,75.0264762 0.236595238,75.0415556 0.248055556,75.0569365 C0.254690476,75.0659841 0.26102381,75.0750317 0.267960317,75.0839286 C0.274595238,75.092373 0.28047619,75.1012698 0.287412698,75.1095635 C0.34034127,75.1741032 0.399452381,75.2332143 0.463992063,75.2861429 C0.478015873,75.2976032 0.492642857,75.3075556 0.506968254,75.3182619 C0.525365079,75.3321349 0.543309524,75.3464603 0.562611111,75.3592778 C0.564119048,75.3601825 0.56547619,75.3613889 0.566833333,75.3622937 C0.58281746,75.373 0.599706349,75.3818968 0.616142857,75.3918492 C0.633634921,75.4024048 0.650825397,75.4134127 0.668769841,75.4230635 C0.670428571,75.4239683 0.671936508,75.4250238 0.673746032,75.4257778 C0.690333333,75.4345238 0.707373016,75.4417619 0.724261905,75.449754 C0.743261905,75.4588016 0.761809524,75.4683016 0.781261905,75.4762937 C0.782769841,75.4768968 0.784126984,75.4776508 0.785484127,75.478254 C0.801920635,75.4850397 0.818960317,75.4903175 0.835547619,75.4963492 C0.856206349,75.5038889 0.876714286,75.511881 0.89797619,75.5183651 C0.899333333,75.5188175 0.900539683,75.5192698 0.901896825,75.5195714 C0.918936508,75.5246984 0.936428571,75.5281667 0.953619048,75.5326905 C0.974880952,75.538119 0.995992063,75.5441508 1.01770635,75.5485238 C1.01906349,75.5488254 1.02042063,75.549127 1.02192857,75.5494286 C1.04243651,75.5535 1.06309524,75.5556111 1.08360317,75.558627 C1.10245238,75.5613413 1.121,75.5649603 1.14,75.5669206 C1.14135714,75.5670714 1.14271429,75.5672222 1.14407143,75.567373 C1.15990476,75.568881 1.17588889,75.5687302 1.19172222,75.5697857 C1.21660317,75.5712937 1.24163492,75.5734048 1.26666667,75.5734048 C1.26726984,75.5734048 1.26787302,75.573254 1.26847619,75.573254 L31.6423889,75.573254 C32.3410159,75.573254 32.908,75.0062698 32.908,74.3076429 C32.908,73.6090159 32.3410159,73.0420317 31.6423889,73.0420317 L10.483627,73.0420317 L21.4935238,69.9602619 C21.702373,69.9020556 21.8922222,69.790619 22.0466349,69.6362063 L71.971246,19.7115952 C72.0050238,19.6778175 72.0359365,19.642381 72.0650397,19.6060397 C72.1012302,19.5770873 72.1363651,19.5463254 72.1698413,19.5126984 C74.3215159,17.3605714 75.5061508,14.5001667 75.5061508,11.4574524 Z M70.3802222,5.19363492 C72.0534286,6.86684127 72.9749286,9.09195238 72.9749286,11.4574524 C72.9749286,13.4927143 72.2918333,15.422119 71.0369286,16.9870556 L58.5871032,4.5361746 C60.1518889,3.28066667 62.0809921,2.59772222 64.1150476,2.59772222 C66.4819048,2.59772222 68.7070159,3.51907143 70.3802222,5.19363492 Z M62.2354048,25.8672937 L49.7064127,13.337246 L51.4955794,11.5480794 L64.025627,24.0770714 L62.2354048,25.8672937 Z M22.5664206,65.5352222 L22.2690556,62.2535 L50.4884286,34.034127 C50.9833333,33.5392222 50.9833333,32.7380556 50.4884286,32.2445079 C49.994881,31.7496032 49.1937143,31.7496032 48.6988095,32.2445079 L20.3613651,60.5819524 L14.1376587,61.4354444 L14.9920556,55.2114365 L43.3288968,26.8745952 C43.8238016,26.3796905 43.8238016,25.5785238 43.3288968,25.0849762 C42.8353492,24.5900714 42.0341825,24.5900714 41.5392778,25.0849762 L13.3199048,53.3041984 L10.037127,53.0066825 L47.9157381,15.1280714 L60.4457857,27.6569127 L22.5664206,65.5352222 Z M7.88590476,55.3536349 L12.3611587,55.759119 L11.4033175,62.743881 C11.4016587,62.7565476 11.4013571,62.7689127 11.4001508,62.7814286 C11.3975873,62.8051032 11.3951746,62.8289286 11.3939683,62.8529048 C11.3927619,62.8755238 11.3929127,62.8978413 11.3929127,62.9203095 C11.3930635,62.9387063 11.3929127,62.9569524 11.3936667,62.9753492 C11.3950238,63.0035476 11.3977381,63.0314444 11.4009048,63.0591905 C11.4019603,63.0688413 11.4021111,63.0783413 11.4033175,63.0879921 C11.4039206,63.0922143 11.4049762,63.0961349 11.4055794,63.1002063 C11.4093492,63.1256905 11.4143254,63.1507222 11.4196032,63.175754 C11.422619,63.1902302 11.4254841,63.2048571 11.4291032,63.2191825 C11.4348333,63.242254 11.4414683,63.2647222 11.4484048,63.2873413 C11.453381,63.3037778 11.4585079,63.3202143 11.4642381,63.3363492 C11.4711746,63.3561032 11.4787143,63.3754048 11.4867063,63.3947063 C11.494246,63.4129524 11.5019365,63.4310476 11.5102302,63.4489921 C11.5180714,63.465881 11.5263651,63.482619 11.5349603,63.4992063 C11.5447619,63.5180556 11.5550159,63.536754 11.565873,63.555 C11.5749206,63.570381 11.5839683,63.5856111 11.593619,63.6005397 C11.6050794,63.6183333 11.6171429,63.6356746 11.6295079,63.6528651 C11.6402143,63.6677937 11.6509206,63.6825714 11.6622302,63.6970476 C11.6742937,63.7124286 11.6869603,63.7272063 11.6997778,63.7419841 C11.7128968,63.7572143 11.7258651,63.7724444 11.7397381,63.7870714 C11.7510476,63.7989841 11.7631111,63.8102937 11.774873,63.821754 C11.7913095,63.8378889 11.807746,63.8540238 11.8250873,63.869254 C11.8332302,63.8763413 11.8418254,63.8826746 11.850119,63.8896111 C11.9241587,63.9511349 12.0052857,64.0045159 12.0928968,64.048246 C12.097873,64.0508095 12.1026984,64.0536746 12.1078254,64.0560873 C12.1293889,64.0664921 12.1517063,64.0753889 12.173873,64.0845873 C12.1888016,64.0907698 12.2037302,64.0974048 12.2189603,64.1029841 C12.2378095,64.1099206 12.2572619,64.1158016 12.2765635,64.1219841 C12.2963175,64.1283175 12.3162222,64.1343492 12.3364286,64.139627 C12.3539206,64.1441508 12.3717143,64.1480714 12.3895079,64.1519921 C12.412127,64.1568175 12.4348968,64.1611905 12.4578175,64.1649603 C12.4671667,64.1664683 12.4760635,64.168881 12.4854127,64.1702381 C12.4918968,64.1711429 12.4980794,64.1706905 12.5045635,64.1714444 C12.5541746,64.1774762 12.6042381,64.1815476 12.6552063,64.1815476 C12.6558095,64.1815476 12.6564127,64.1813968 12.6570159,64.1813968 C12.657619,64.1813968 12.6582222,64.1815476 12.6588254,64.1815476 C12.7097937,64.1815476 12.7598571,64.1773254 12.8094683,64.1714444 C12.8159524,64.1706905 12.8221349,64.1709921 12.828619,64.1702381 L19.8138333,63.2113413 L20.2194683,67.6864444 L5.57665079,71.7859206 L7.22346825,70.1391032 C7.71837302,69.6441984 7.71837302,68.8443889 7.22346825,68.3494841 C6.72856349,67.8545794 5.92875397,67.8545794 5.43384921,68.3494841 L3.78612698,69.9972063 L7.88590476,55.3536349 Z M65.8155476,22.2871508 L53.2865556,9.75710317 L56.7576746,6.28598413 L69.2866667,18.8161825 L65.8155476,22.2871508 Z" id="Shape"></path>
                </g>
                <g id="Group">
                    <path d="M44.4744352,74.5221855 C30.4325303,71.1154744 20,58.3884943 20,43.2089552 C20,25.4204404 34.326888,11 52,11 C69.673112,11 84,25.4204404 84,43.2089552 C84,58.3884943 73.5674697,71.1154744 59.5255648,74.5221855 L52,94 L44.4744352,74.5221855 Z" id="Combined-Shape-Copy" stroke="#4E4E4E" stroke-width="2.4" fill="#F9FBFC" stroke-linecap="round" stroke-linejoin="round" transform="translate(52.000000, 52.500000) rotate(-45.000000) translate(-52.000000, -52.500000) "></path>
                    <text id="Take-a-pen" font-family="Roboto-Bold, Roboto" font-size="12.8" font-weight="bold" fill="#4E4E4E">
                        <tspan x="30.73125" y="42">Take</tspan>
                        <tspan x="29.328125" y="57">a pen</tspan>
                    </text>
                </g>
            </g>
        </g>
    </g>
</svg>