<?xml version="1.0" encoding="UTF-8"?>
<svg width="460px" height="252px" viewBox="0 0 460 252" version="1.1" xmlns="http://www.w3.org/2000/svg" xmlns:xlink="http://www.w3.org/1999/xlink">
    <!-- Generator: Sketch 50.2 (55047) - http://www.bohemiancoding.com/sketch -->
    <title>Group 3</title>
    <desc>Created with Sketch.</desc>
    <defs></defs>
    <g id="Elements" stroke="none" stroke-width="1" fill="none" fill-rule="evenodd">
        <g id="wallet-small-task-list-copy-9" transform="translate(0.000000, -225.000000)">
            <g id="Preview-window-Copy" transform="translate(0.000000, 226.000000)">
                <g id="Group-3">
                    <g id="bg" stroke="#FFFFFF" stroke-linecap="square">
                        <path d="M0.5,0.358166189 L458.5,249.641834" id="Line-2"></path>
                        <path d="M459.5,0.357653791 L1,249.642346" id="Line-3"></path>
                    </g>
                    <g id="Group" transform="translate(185.000000, 80.000000)">
                        <circle id="Oval-2" fill="#243048" cx="45.5" cy="45.5" r="45.5"></circle>
                        <g id="Page-1" transform="translate(28.000000, 31.000000)" fill="#FFFFFF">
                            <path d="M1.27586207,28.6956522 L35.7241379,28.6956522 L35.7241379,1.30434783 L1.27586207,1.30434783 L1.27586207,28.6956522 Z M36.362069,0 L0.637931034,0 C0.285793103,0 0,0.291521739 0,0.652173913 L0,29.3478261 C0,29.7084783 0.285793103,30 0.637931034,30 L36.362069,30 C36.7142069,30 37,29.7084783 37,29.3478261 L37,0.652173913 C37,0.291521739 36.7142069,0 36.362069,0 Z" id="Fill-1"></path>
                            <path d="M10.2068966,8.47826087 C11.4623448,8.47826087 12.4836724,9.52304348 12.4836724,10.8058696 C12.4836724,12.0886957 11.4623448,13.1334783 10.2068966,13.1334783 C8.95144828,13.1334783 7.93012069,12.0893478 7.93012069,10.8065217 C7.93012069,9.52369565 8.95144828,8.47826087 10.2068966,8.47826087 M10.2068966,14.4378261 C12.1659828,14.4378261 13.7595345,12.8086957 13.7595345,10.8065217 C13.7595345,8.80304348 12.1659828,7.17391304 10.2068966,7.17391304 C8.24781034,7.17391304 6.65425862,8.80304348 6.65425862,10.8058696 C6.65425862,12.8086957 8.24781034,14.4378261 10.2068966,14.4378261" id="Fill-3"></path>
                            <path d="M4.46551724,26.0869565 C4.6147931,26.0869565 4.76534483,26.0334783 4.88655172,25.9245652 L15.2931207,16.5580435 L21.8650862,23.276087 C22.1145172,23.531087 22.5176897,23.531087 22.7671207,23.276087 C23.0165517,23.021087 23.0165517,22.608913 22.7671207,22.353913 L19.7005862,19.218913 L25.557431,12.6619565 L32.7411724,19.3943478 C33.0008103,19.6376087 33.4046207,19.6193478 33.642569,19.353913 C33.8805172,19.0884783 33.8632931,18.6756522 33.6030172,18.4323913 L25.9478448,11.2584783 C25.8228103,11.1417391 25.6563103,11.0836957 25.4885345,11.0876087 C25.3194828,11.0954348 25.16,11.1717391 25.0458103,11.2995652 L18.7979138,18.2954348 L15.7722069,15.2021739 C15.5336207,14.958913 15.1521379,14.9465217 14.8995172,15.1734783 L4.04384483,24.945 C3.77910345,25.1830435 3.75358621,25.5952174 3.98643103,25.8658696 C4.11274138,26.0126087 4.28881034,26.0869565 4.46551724,26.0869565" id="Fill-4"></path>
                        </g>
                    </g>
                    <text id="This-is-the-preview" font-family="Roboto-Regular, Roboto" font-size="9" font-weight="normal" line-spacing="12" fill="#CBCBCB">
                        <tspan x="150.439209" y="196">This is the preview window of your task.</tspan>
                        <tspan x="129.72998" y="208">When it starts computing you will see results here.</tspan>
                        <tspan x="142.265381" y="220">You will also be able to expand this window.</tspan>
                    </text>
                </g>
            </g>
        </g>
    </g>
</svg>