<?xml version="1.0" encoding="UTF-8"?>
<svg width="160px" height="160px" viewBox="0 0 160 160" version="1.1" xmlns="http://www.w3.org/2000/svg" xmlns:xlink="http://www.w3.org/1999/xlink">
    <!-- Generator: Sketch 48.2 (47327) - http://www.bohemiancoding.com/sketch -->
    <title>Group 2</title>
    <desc>Created with Sketch.</desc>
    <defs>
        <polygon id="path-1" points="0 1 79.9996571 1 79.9996571 67.4284571 0 67.4284571"></polygon>
    </defs>
    <g id="pass-print-1" stroke="none" stroke-width="1" fill="none" fill-rule="evenodd" transform="translate(-150.000000, -64.000000)">
        <g id="Group-2" transform="translate(150.000000, 64.000000)">
            <g id="Group-3" fill="#E3EBEF">
                <circle id="Oval-4" cx="80" cy="80" r="80"></circle>
            </g>
            <g id="Page-1" transform="translate(40.000000, 46.000000)">
                <g id="Group-3" transform="translate(0.000000, 0.142857)">
                    <mask id="mask-2" fill="white">
                        <use xlink:href="#path-1"></use>
                    </mask>
                    <g id="Clip-2"></g>
                    <path d="M76.6076571,43.7667429 C76.6076571,45.0033143 75.6008,46.0090286 74.3642286,46.0090286 L59.4293714,46.0090286 L59.4293714,41.6958857 L62.5242286,41.6958857 C63.4602286,41.6958857 64.2202286,40.9358857 64.2202286,39.9987429 C64.2202286,39.0627429 63.4602286,38.3027429 62.5242286,38.3027429 L57.7333714,38.3027429 L22.2670857,38.3027429 L17.4762286,38.3027429 C16.5390857,38.3027429 15.7790857,39.0627429 15.7790857,39.9987429 C15.7790857,40.9358857 16.5390857,41.6958857 17.4762286,41.6958857 L20.5699429,41.6958857 L20.5699429,46.0090286 L5.63508571,46.0090286 C4.39851429,46.0090286 3.3928,45.0033143 3.3928,43.7667429 L3.3928,16.7610286 C3.3928,15.5244571 4.39851429,14.5176 5.63508571,14.5176 L13.1310857,14.5176 L13.1310857,20.9610286 C13.1310857,21.8981714 13.8910857,22.6581714 14.8270857,22.6581714 L65.1722286,22.6581714 C66.1082286,22.6581714 66.8693714,21.8981714 66.8693714,20.9610286 L66.8693714,14.5176 L74.3642286,14.5176 C75.6008,14.5176 76.6076571,15.5244571 76.6076571,16.7610286 L76.6076571,43.7667429 Z M56.0373714,64.0353143 L23.9630857,64.0353143 L23.9630857,41.6958857 L56.0362286,41.6958857 L56.0362286,64.0353143 L56.0373714,64.0353143 Z M16.5242286,19.2650286 L20.5710857,19.2650286 L20.5710857,14.5176 L16.5242286,14.5176 L16.5242286,19.2650286 Z M23.9630857,19.2661714 L56.0362286,19.2661714 L56.0362286,4.39302857 L23.9630857,4.39302857 L23.9630857,19.2661714 Z M59.4293714,19.2650286 L63.4762286,19.2650286 L63.4762286,14.5176 L59.4293714,14.5176 L59.4293714,19.2650286 Z M74.3642286,11.1244571 L59.4293714,11.1244571 L59.4293714,2.69588571 C59.4293714,1.75988571 58.6705143,0.999885714 57.7322286,0.999885714 L22.2670857,0.999885714 C21.3299429,0.999885714 20.5699429,1.75988571 20.5699429,2.69588571 L20.5699429,11.1256 L5.63508571,11.1256 C2.52765714,11.1244571 -0.000342857143,13.6536 -0.000342857143,16.7610286 L-0.000342857143,43.7667429 C-0.000342857143,46.8741714 2.52765714,49.4021714 5.63508571,49.4021714 L20.5699429,49.4021714 L20.5699429,65.7324571 C20.5699429,66.6684571 21.3299429,67.4284571 22.2670857,67.4284571 L57.7333714,67.4284571 C58.6705143,67.4284571 59.4305143,66.6684571 59.4305143,65.7324571 L59.4305143,49.4021714 L74.3642286,49.4021714 C77.4716571,49.4021714 79.9996571,46.8741714 79.9996571,43.7667429 L79.9996571,16.7610286 C79.9996571,13.6536 77.4716571,11.1244571 74.3642286,11.1244571 Z" id="Fill-1" fill="#4E4E4E" mask="url(#mask-2)"></path>
                </g>
                <path d="M10.7499429,26.4915429 C11.9236571,26.4915429 12.8745143,27.4435429 12.8745143,28.6161143 C12.8745143,29.7909714 11.9236571,30.7418286 10.7499429,30.7418286 C9.57622857,30.7418286 8.62422857,29.7909714 8.62422857,28.6161143 C8.62422857,27.4435429 9.57622857,26.4915429 10.7499429,26.4915429" id="Fill-4" fill="#4E4E4E"></path>
                <path d="M39.5077714,54.7410286 L31.5889143,54.7410286 C30.6517714,54.7410286 29.8917714,55.4998857 29.8917714,56.4370286 C29.8917714,57.3741714 30.6517714,58.1341714 31.5889143,58.1341714 L39.5077714,58.1341714 C40.4449143,58.1341714 41.2037714,57.3741714 41.2037714,56.4370286 C41.2037714,55.4998857 40.4449143,54.7410286 39.5077714,54.7410286" id="Fill-6" fill="#4E4E4E"></path>
                <path d="M48.4113143,46.1517714 L31.5884571,46.1517714 C30.6524571,46.1517714 29.8924571,46.9106286 29.8924571,47.8477714 C29.8924571,48.7849143 30.6513143,49.5449143 31.5884571,49.5449143 L48.4113143,49.5449143 C49.3473143,49.5449143 50.1073143,48.7849143 50.1073143,47.8477714 C50.1073143,46.9106286 49.3473143,46.1517714 48.4113143,46.1517714" id="Fill-8" fill="#4E4E4E"></path>
            </g>
        </g>
    </g>
</svg>