<?xml version="1.0" encoding="UTF-8"?>
<svg width="170px" height="179px" viewBox="0 0 170 179" version="1.1" xmlns="http://www.w3.org/2000/svg" xmlns:xlink="http://www.w3.org/1999/xlink">
    <!-- Generator: Sketch 48.2 (47327) - http://www.bohemiancoding.com/sketch -->
    <title>Group 5</title>
    <desc>Created with Sketch.</desc>
    <defs></defs>
    <g id="onboarding-pass-copy-2" stroke="none" stroke-width="1" fill="none" fill-rule="evenodd" transform="translate(-150.000000, -45.000000)">
        <g id="Group-5" transform="translate(150.000000, 35.000000)">
            <circle id="Oval-4" fill="#E3EBEF" cx="80" cy="109" r="80"></circle>
            <g id="Group-2" transform="translate(46.000000, 0.000000)">
                <g id="clipboards" transform="translate(0.000000, 63.000000)" fill="#4E4E4E" fill-rule="nonzero">
                    <rect id="Rectangle-path" x="12.8204" y="38.4" width="38.4" height="3.2"></rect>
                    <polygon id="Shape" points="12.8204 47.9996 12.8204 51.1996 43.9632 51.1996 47.1632 47.9996"></polygon>
                    <polygon id="Shape" points="12.8204 57.5996 12.8204 60.7996 34.3626 60.7996 37.5628 57.5996"></polygon>
                    <rect id="Rectangle-path" x="12.8204" y="67.2" width="16" height="3.2"></rect>
                    <path d="M79.0394156,34.219821 L74.513998,29.6948033 C73.2650483,28.4458536 71.23773,28.4456537 69.9887803,29.6946033 C58.4398457,41.2435379 46.8601124,52.8232713 35.2191815,64.4640021 C35.2191815,70.001179 35.2191815,68.8016273 35.2191815,73.5960341 C42.9224711,73.5960341 40.9737496,73.599634 44.2018195,73.5824347 C45.8719522,71.912302 53.2428552,64.541599 60.8181499,56.9665043 L60.8181499,79.9963762 C60.8181499,81.763505 59.3856076,83.1962472 57.6182788,83.1962472 L6.42034209,83.1962472 C4.65301331,83.1962472 3.22047104,81.763505 3.22047104,79.9963762 L3.22047104,22.3986973 C3.22047104,20.6313686 4.65301331,19.1988263 6.42034209,19.1988263 L12.8206842,19.1988263 L12.8206842,25.5987684 L51.2185367,25.5987684 L51.2185367,19.1990263 L57.6182788,19.1988263 C59.3856076,19.1988263 60.8181499,20.6313686 60.8181499,22.3986973 L60.8181499,34.2834184 L64.0180209,31.0613482 L64.0180209,22.3986973 C64.0180209,18.8640398 61.1527364,15.9989553 57.6182788,15.9989553 L50.665759,15.9989553 C49.6382004,13.0946723 47.2576964,10.8293636 44.2772165,9.97239812 C42.8038759,9.54881519 41.6699216,8.41486089 41.2461386,6.94152026 C40.0931851,2.93248182 36.398734,0 32.0191105,0 C27.639687,0 23.9454358,2.93248182 22.7926823,6.94092029 C22.3682994,8.41606084 21.2315452,9.5486152 19.7566046,9.97359807 C16.7773247,10.8321635 14.3948207,13.0950723 13.3684621,15.9989553 L6.42014209,15.9989553 C2.88568453,15.9989553 0.0204,18.8640398 0.0204,22.3986973 L0.0204,79.9963762 C0.0204,83.5308338 2.88568453,86.3961183 6.42014209,86.3961183 L57.6180788,86.3961183 C61.1525364,86.3961183 64.0178209,83.5308338 64.0178209,79.9963762 L64.0178209,53.7668332 C70.8973437,46.8875105 77.3046855,40.4799687 79.0392156,38.7452386 C80.2881653,37.4960889 80.2881653,35.4687706 79.0394156,34.219821 Z M16.0201552,19.1476284 C16.0421543,16.3345417 17.9428777,13.8266428 20.6423689,13.0486741 C23.1842665,12.3163037 25.1377878,10.3635824 25.8677584,7.82568463 C26.6511268,5.1017944 29.1806249,3.19987105 32.0191105,3.19987105 C34.8577961,3.19987105 37.3872941,5.1017944 38.1704626,7.82568463 C38.9008331,10.3651823 40.8529545,12.3173036 43.3924521,13.0474742 C46.1159424,13.8310426 48.0182657,16.3605407 48.0182657,19.1990263 L48.0182657,22.3988973 L16.0201552,22.3988973 L16.0201552,19.1476284 Z M42.8686732,70.3901633 C42.0389067,70.3947631 41.6991204,70.3961631 40.5509666,70.3965631 L38.4188526,68.264449 L38.4188526,65.7895487 C39.2120206,64.9963807 39.7605985,64.4478028 40.5743657,63.6340356 L45.0995833,68.1592532 L42.8686732,70.3901633 Z M47.3620922,65.8967444 L42.8368745,61.3715268 L63.2008539,41.0077474 L67.7260715,45.533165 L47.3620922,65.8967444 Z M69.9885803,43.2702562 L65.4633627,38.7450386 L67.7260715,36.4823298 L72.2514891,41.0075474 L69.9885803,43.2702562 Z M74.513998,38.7452386 L69.9885803,34.219821 L72.2512891,31.9573121 L76.7767068,36.4825298 L74.513998,38.7452386 Z" id="Shape"></path>
                    <circle id="Oval" cx="32.0684" cy="9.6" r="2.4"></circle>
                </g>
                <g id="Group" transform="translate(44.265625, 0.000000)">
                    <path d="M38.6025288,63.0421106 C26.6375467,60.1398112 17.7480804,49.2972402 17.7480804,36.3652462 C17.7480804,21.2105722 29.9558942,8.92528156 45.0149956,8.92528156 C60.074097,8.92528156 72.2819108,21.2105722 72.2819108,36.3652462 C72.2819108,49.2972402 63.3924446,60.1398112 51.4274624,63.0421106 L45.0149956,79.6359597 L38.6025288,63.0421106 Z" id="Combined-Shape-Copy" stroke="#4E4E4E" stroke-width="2.4" fill="#F9FBFC" stroke-linecap="round" stroke-linejoin="round" transform="translate(45.014996, 44.280621) scale(-1, 1) rotate(-45.000000) translate(-45.014996, -44.280621) "></path>
                    <text id="Terms" font-family="Roboto-Bold, Roboto" font-size="12.8" font-weight="bold" fill="#4E4E4E">
                        <tspan x="32.0622294" y="43">Terms</tspan>
                    </text>
                </g>
            </g>
        </g>
    </g>
</svg>