<?xml version="1.0" encoding="UTF-8"?>
<svg width="82px" height="24px" viewBox="0 0 82 24" version="1.1" xmlns="http://www.w3.org/2000/svg" xmlns:xlink="http://www.w3.org/1999/xlink">
    <!-- Generator: Sketch 48.2 (47327) - http://www.bohemiancoding.com/sketch -->
    <title>topbar-testnet-logo-small</title>
    <desc>Created with Sketch.</desc>
    <defs>
        <polygon id="path-1" points="0.0003 0.992 11.6733 0.992 11.6733 24.9997 0.0003 24.9997"></polygon>
    </defs>
    <g id="settings---testnet" stroke="none" stroke-width="1" fill="none" fill-rule="evenodd" transform="translate(-25.000000, -41.000000)">
        <g id="topbar-testnet-logo-small" transform="translate(25.000000, 40.000000)">
            <g id="Page-1">
                <g id="Group-3" transform="translate(0.000000, 0.007800)">
                    <mask id="mask-2" fill="white">
                        <use xlink:href="#path-1"></use>
                    </mask>
                    <g id="Clip-2"></g>
                    <path d="M5.0833,11.1717 C3.2153,11.1717 1.6943,9.6207 1.6943,7.7147 C1.6943,5.8087 3.2153,4.2577 5.0833,4.2577 C6.9523,4.2577 8.4723,5.8087 8.4723,7.7147 C8.4723,9.6207 6.9523,11.1717 5.0833,11.1717 M8.4723,19.8147 C8.4723,21.7207 6.9523,23.2717 5.0833,23.2717 C3.2153,23.2717 1.6943,21.7207 1.6943,19.8147 C1.6943,17.9077 3.2153,16.3577 5.0833,16.3577 C6.9523,16.3577 8.4723,17.9077 8.4723,19.8147 M10.1663,7.7147 C10.1663,6.5967 9.8163,5.5607 9.2243,4.7127 L11.6733,2.2147 L10.4753,0.9917 L8.0263,3.4897 C7.1943,2.8857 6.1793,2.5287 5.0833,2.5287 C2.2803,2.5287 0.0003,4.8557 0.0003,7.7147 C0.0003,10.2787 1.8353,12.4137 4.2363,12.8267 L4.2363,14.7017 C1.8353,15.1147 0.0003,17.2497 0.0003,19.8147 C0.0003,22.6737 2.2803,24.9997 5.0833,24.9997 C7.8863,24.9997 10.1663,22.6737 10.1663,19.8147 C10.1663,17.2497 8.3313,15.1147 5.9303,14.7017 L5.9303,12.8267 C8.3313,12.4147 10.1663,10.2797 10.1663,7.7147" id="Fill-1" fill="#243048" mask="url(#mask-2)"></path>
                </g>
                <path d="M30.6116,11.4852 C31.1666,11.4852 31.5676,11.4092 31.8156,11.2572 C32.0636,11.1052 32.1876,10.8582 32.1876,10.5172 C32.1876,10.1752 32.0596,9.9222 31.8036,9.7572 C31.5476,9.5912 31.1586,9.5092 30.6356,9.5092 L28.7716,9.5092 L28.7716,11.4852 L30.6116,11.4852 Z M30.5956,8.8372 C31.0706,8.8372 31.4196,8.7652 31.6436,8.6212 C31.8676,8.4772 31.9796,8.2502 31.9796,7.9412 C31.9796,7.6532 31.8626,7.4432 31.6276,7.3132 C31.3926,7.1822 31.0166,7.1172 30.4996,7.1172 L28.7716,7.1172 L28.7716,8.8372 L30.5956,8.8372 Z M27.9956,12.1572 L27.9956,6.4452 L30.5396,6.4452 C32.0386,6.4452 32.7876,6.9322 32.7876,7.9072 C32.7876,8.2152 32.7096,8.4732 32.5516,8.6772 C32.3946,8.8822 32.1606,9.0332 31.8516,9.1292 C32.6256,9.3852 33.0116,9.8422 33.0116,10.4992 C33.0116,11.0382 32.8116,11.4492 32.4116,11.7332 C32.0116,12.0152 31.4246,12.1572 30.6516,12.1572 L27.9956,12.1572 Z" id="Fill-4" fill="#5A6EAA"></path>
                <polygon id="Fill-6" fill="#5A6EAA" points="36.2117 12.157 36.2117 6.445 40.7557 6.445 40.7557 7.141 37.0037 7.141 37.0037 8.861 40.5717 8.861 40.5717 9.557 37.0037 9.557 37.0037 11.461 40.9237 11.461 40.7877 12.157"></polygon>
                <polygon id="Fill-8" fill="#5A6EAA" points="45.7878 12.157 45.7878 7.141 43.4198 7.141 43.4198 6.445 48.9478 6.445 48.9478 7.141 46.5798 7.141 46.5798 12.157"></polygon>
                <path d="M53.2278,7.2933 L51.9638,9.9253 L54.4918,9.9253 L53.2278,7.2933 Z M55.5398,12.1573 L54.7878,10.5813 L51.6598,10.5813 L50.9158,12.1573 L50.0678,12.1573 L52.8358,6.4453 L53.6518,6.4453 L56.4198,12.1573 L55.5398,12.1573 Z" id="Fill-10" fill="#5A6EAA"></path>
                <polygon id="Fill-12" fill="#5A6EAA" points="29.7078 20.6624 29.7078 15.6464 27.3398 15.6464 27.3398 14.9504 32.8678 14.9504 32.8678 15.6464 30.4998 15.6464 30.4998 20.6624"></polygon>
                <polygon id="Fill-14" fill="#5A6EAA" points="35.7478 20.6624 35.7478 14.9504 40.2918 14.9504 40.2918 15.6464 36.5398 15.6464 36.5398 17.3664 40.1078 17.3664 40.1078 18.0624 36.5398 18.0624 36.5398 19.9664 40.4598 19.9664 40.3238 20.6624"></polygon>
                <path d="M47.7317,16.4305 C47.5977,16.0995 47.3947,15.8625 47.1197,15.7185 C46.8447,15.5745 46.4597,15.5025 45.9637,15.5025 C45.3987,15.5025 44.9617,15.5765 44.6557,15.7265 C44.3487,15.8755 44.1957,16.0895 44.1957,16.3665 C44.1957,16.5535 44.2417,16.7065 44.3357,16.8265 C44.4287,16.9465 44.5757,17.0435 44.7757,17.1185 C44.9757,17.1935 45.2437,17.2545 45.5797,17.3025 L46.6837,17.4625 C47.3447,17.5635 47.8347,17.7515 48.1517,18.0265 C48.4687,18.3015 48.6277,18.6755 48.6277,19.1505 C48.6277,19.6735 48.4037,20.0795 47.9557,20.3705 C47.5077,20.6605 46.8837,20.8065 46.0837,20.8065 C45.1977,20.8065 44.5207,20.6575 44.0517,20.3585 C43.5827,20.0595 43.3127,19.6065 43.2437,18.9985 L44.0597,18.9985 C44.1337,19.3775 44.3367,19.6575 44.6677,19.8385 C44.9987,20.0195 45.4697,20.1105 46.0837,20.1105 C46.6377,20.1105 47.0647,20.0265 47.3637,19.8585 C47.6627,19.6905 47.8117,19.4515 47.8117,19.1425 C47.8117,18.8815 47.7107,18.6755 47.5077,18.5265 C47.3047,18.3775 46.9747,18.2675 46.5157,18.1985 L45.5237,18.0545 C44.9897,17.9745 44.5697,17.8655 44.2637,17.7265 C43.9567,17.5875 43.7357,17.4105 43.5997,17.1945 C43.4637,16.9785 43.3957,16.7105 43.3957,16.3905 C43.3957,15.8945 43.6227,15.5065 44.0757,15.2265 C44.5287,14.9465 45.1577,14.8065 45.9637,14.8065 C46.4597,14.8065 46.8747,14.8585 47.2077,14.9625 C47.5407,15.0665 47.8117,15.2275 48.0197,15.4465 C48.2277,15.6655 48.3847,15.9475 48.4917,16.2945 L47.7317,16.4305 Z" id="Fill-16" fill="#5A6EAA"></path>
                <polygon id="Fill-18" fill="#5A6EAA" points="53.4119 20.6624 53.4119 15.6464 51.0439 15.6464 51.0439 14.9504 56.5719 14.9504 56.5719 15.6464 54.2039 15.6464 54.2039 20.6624"></polygon>
                <polygon id="Fill-20" fill="#5A6EAA" points="64.0281 20.6624 60.2281 16.0704 60.2281 20.6624 59.4521 20.6624 59.4521 14.9504 60.2201 14.9504 64.0201 19.5424 64.0201 14.9504 64.7961 14.9504 64.7961 20.6624"></polygon>
                <polygon id="Fill-22" fill="#5A6EAA" points="68.3318 20.6624 68.3318 14.9504 72.8758 14.9504 72.8758 15.6464 69.1238 15.6464 69.1238 17.3664 72.6918 17.3664 72.6918 18.0624 69.1238 18.0624 69.1238 19.9664 73.0438 19.9664 72.9078 20.6624"></polygon>
                <polygon id="Fill-24" fill="#5A6EAA" points="77.9075 20.6624 77.9075 15.6464 75.5395 15.6464 75.5395 14.9504 81.0675 14.9504 81.0675 15.6464 78.6995 15.6464 78.6995 20.6624"></polygon>
            </g>
        </g>
    </g>
</svg>