<?xml version="1.0" encoding="UTF-8"?>
<svg width="160px" height="160px" viewBox="0 0 160 160" version="1.1" xmlns="http://www.w3.org/2000/svg" xmlns:xlink="http://www.w3.org/1999/xlink">
    <!-- Generator: Sketch 49 (51002) - http://www.bohemiancoding.com/sketch -->
    <title>Group 3</title>
    <desc>Created with Sketch.</desc>
    <defs></defs>
    <g id="Elements" stroke="none" stroke-width="1" fill="none" fill-rule="evenodd">
        <g id="pass-writing" transform="translate(-150.000000, -64.000000)">
            <g id="Group-3" transform="translate(150.000000, 64.000000)">
                <circle id="Oval-4" fill="#E3EBEF" cx="80" cy="80" r="80"></circle>
                <g id="unlocked" transform="translate(21.000000, 21.000000)">
                    <rect id="Rectangle-path" x="0" y="0" width="120" height="120"></rect>
                    <path d="M60,66.275 C58.360287,66.2746557 56.7894799,66.9344629 55.6418459,68.105614 C54.4942119,69.2767651 53.8663993,70.8606313 53.9,72.5 C53.9035546,74.3217228 54.7081137,76.0496962 56.1,77.225 L56.1,84.725 C56.1,85.6086556 56.8163444,86.325 57.7,86.325 L62.3,86.325 C63.1836556,86.325 63.9,85.6086556 63.9,84.725 L63.9,77.225 C65.2918863,76.0496962 66.0964454,74.3217228 66.1,72.5 C66.1336007,70.8606313 65.5057881,69.2767651 64.3581541,68.105614 C63.2105201,66.9344629 61.639713,66.2746557 60,66.275 Z M61.5,75 C61.0101755,75.2826349 60.7131554,75.8096061 60.725,76.375 L60.725,83.2 L59.275,83.2 L59.275,76.275 C59.2516751,75.7454406 58.9593526,75.264523 58.5,75 C57.6121252,74.4814411 57.0687753,73.5281957 57.075,72.5 C57.075,70.8845671 58.3845671,69.575 60,69.575 C61.6154329,69.575 62.925,70.8845671 62.925,72.5 C62.9312247,73.5281957 62.3878748,74.4814411 61.5,75 Z" id="Shape" fill="#000000" fill-rule="nonzero"></path>
                    <path d="M68.325,58.65 L51.675,58.65 C51.0602742,58.5727056 50.4561786,58.8572579 50.1243,59.3804393 C49.7924213,59.9036207 49.7924213,60.5713793 50.1243,61.0945607 C50.4561786,61.6177421 51.0602742,61.9022944 51.675,61.825 L68.325,61.825 C68.9397258,61.9022944 69.5438214,61.6177421 69.8757,61.0945607 C70.2075787,60.5713793 70.2075787,59.9036207 69.8757,59.3804393 C69.5438214,58.8572579 68.9397258,58.5727056 68.325,58.65 Z" id="Shape" fill="#000000" fill-rule="nonzero"></path>
                    <path d="M60.55,58.65 L59.45,58.65 C58.8352742,58.5727056 58.2311786,58.8572579 57.8993,59.3804393 C57.5674213,59.9036207 57.5674213,60.5713793 57.8993,61.0945607 C58.2311786,61.6177421 58.8352742,61.9022944 59.45,61.825 L60.55,61.825 C61.1647258,61.9022944 61.7688214,61.6177421 62.1007,61.0945607 C62.4325787,60.5713793 62.4325787,59.9036207 62.1007,59.3804393 C61.7688214,58.8572579 61.1647258,58.5727056 60.55,58.65 Z" id="Shape" fill="#000000" fill-rule="nonzero"></path>
                    <path d="M85,53.975 L82.5,53.975 L82.5,42.5 C82.8589851,30.0735931 73.0764069,19.7089851 60.65,19.35 C48.2235931,18.9910149 37.8589851,28.7735931 37.5,41.2 L40.675,41.2 C40.9072226,34.2958425 44.8051294,28.0400271 50.9004165,24.7890591 C56.9957036,21.538091 64.362352,21.7858696 70.2254165,25.4390591 C76.088481,29.0922485 79.5572226,35.5958425 79.325,42.5 L79.325,53.95 L77.225,53.95 L77.225,42.5 C77.218854,33.2444357 69.8994485,25.6482495 60.6504842,25.2987246 C51.40152,24.9491998 43.5296793,31.9712983 42.825,41.2 L46,41.2 C46.6333435,33.6726654 53.1051577,27.9933399 60.6509902,28.3430576 C68.1968227,28.6927753 74.1155968,34.9463527 74.05,42.5 L74.05,53.95 L35,53.95 C34.1260161,53.9498933 33.413656,54.6511228 33.4,55.525 L33.4,85.825 C33.4135283,93.6188058 39.7063757,99.9451257 47.5,100 L72.5,100 C80.3229294,99.9862393 86.6612393,93.6479294 86.675,85.825 L86.675,55.55 C86.6687073,55.1166889 86.4869181,54.7044631 86.1712094,54.4076027 C85.8555007,54.1107423 85.4328782,53.9546407 85,53.975 Z M83.5,85.825 C83.5,91.9001322 78.5751322,96.825 72.5,96.825 L47.5,96.825 C41.4346331,96.811215 36.5249843,91.8903825 36.525,85.825 L36.525,57.15 L83.5,57.15 L83.5,85.825 Z" id="Shape" fill="#000000" fill-rule="nonzero"></path>
                </g>
            </g>
        </g>
    </g>
</svg>