<?xml version="1.0" encoding="UTF-8"?>
<svg width="160px" height="160px" viewBox="0 0 160 160" version="1.1" xmlns="http://www.w3.org/2000/svg" xmlns:xlink="http://www.w3.org/1999/xlink">
    <!-- Generator: Sketch 48.2 (47327) - http://www.bohemiancoding.com/sketch -->
    <title>onboarding-locker-unlocked</title>
    <desc>Created with Sketch.</desc>
    <defs>
        <polygon id="path-1" points="0 0 52.0447 0 52.0447 77.9995 0 77.9995"></polygon>
    </defs>
    <g id="pass-clean-copy-4" stroke="none" stroke-width="1" fill="none" fill-rule="evenodd" transform="translate(-150.000000, -64.000000)">
        <g id="onboarding-locker-unlocked" transform="translate(150.000000, 64.000000)">
            <g id="Group-3" fill="#E3EBEF">
                <circle id="Oval-4" cx="80" cy="80" r="80"></circle>
            </g>
            <g id="Page-1" transform="translate(54.000000, 41.000000)">
                <path d="M28.8747,51.077 C28.8747,52.092 28.3527,53.009 27.4777,53.529 C27.0077,53.809 26.7187,54.317 26.7187,54.864 L26.7187,61.524 L25.3257,61.524 L25.3257,54.864 C25.3257,54.317 25.0377,53.809 24.5667,53.529 C23.6927,53.009 23.1707,52.092 23.1707,51.077 C23.1707,49.505 24.4507,48.225 26.0227,48.225 C27.5957,48.225 28.8747,49.505 28.8747,51.077 M20.0627,51.077 C20.0627,52.854 20.8717,54.54 22.2187,55.662 L22.2187,63.078 C22.2187,63.936 22.9147,64.632 23.7717,64.632 L28.2727,64.632 C29.1307,64.632 29.8267,63.936 29.8267,63.078 L29.8267,55.662 C31.1737,54.54 31.9817,52.854 31.9817,51.077 C31.9817,47.791 29.3087,45.118 26.0227,45.118 C22.7367,45.118 20.0627,47.791 20.0627,51.077" id="Fill-1" fill="#4E4E4E"></path>
                <path d="M6.2741,40.782 L22.5281,40.782 C23.3871,40.782 24.0831,40.086 24.0831,39.228 C24.0831,38.37 23.3871,37.674 22.5291,37.674 L6.2741,37.674 C5.4161,37.674 4.7201,38.37 4.7201,39.228 C4.7201,40.086 5.4161,40.782 6.2741,40.782" id="Fill-3" fill="#4E4E4E"></path>
                <path d="M27.0861,40.782 L28.1491,40.782 C29.0071,40.782 29.7031,40.086 29.7031,39.228 C29.7031,38.37 29.0071,37.674 28.1491,37.674 L27.0861,37.674 C26.2281,37.674 25.5321,38.37 25.5321,39.228 C25.5321,40.086 26.2281,40.782 27.0861,40.782" id="Fill-5" fill="#4E4E4E"></path>
                <g id="Group-9">
                    <mask id="mask-2" fill="white">
                        <use xlink:href="#path-1"></use>
                    </mask>
                    <g id="Clip-8"></g>
                    <path d="M48.9377,64.1805 C48.9377,70.0875 44.1327,74.8925 38.2267,74.8925 L13.8187,74.8925 C7.9127,74.8925 3.1077,70.0865 3.1077,64.1805 L3.1077,36.2245 L48.9377,36.2245 L48.9377,64.1805 Z M50.4917,33.1175 L47.9817,33.1175 L47.9817,21.9585 C47.9817,9.8505 38.1307,-0.0005 26.0227,-0.0005 C13.9147,-0.0005 4.0637,9.8505 4.0637,21.9585 L4.0637,24.5145 L4.0687,24.5145 L4.0687,24.9235 C4.0687,25.7825 4.7647,26.4775 5.6227,26.4775 C6.4807,26.4775 7.1767,25.7825 7.1767,24.9245 L7.1767,22.4975 C7.1767,22.4885 7.1717,22.4815 7.1717,22.4725 L7.1717,21.9585 C7.1717,11.5645 15.6277,3.1075 26.0227,3.1075 C36.4167,3.1075 44.8737,11.5645 44.8737,21.9585 L44.8737,33.1175 L42.8287,33.1175 L42.8287,21.9705 C42.8287,12.7035 35.2887,5.1645 26.0227,5.1645 C16.7567,5.1645 9.2167,12.7035 9.2167,21.9705 L9.2167,22.4645 C9.2167,22.4765 9.2107,22.4865 9.2107,22.4975 L9.2107,24.9235 C9.2107,25.7825 9.9067,26.4775 10.7647,26.4775 C11.6227,26.4775 12.3177,25.7825 12.3177,24.9245 L12.3177,24.5145 L12.3247,24.5145 L12.3247,21.9705 C12.3247,14.4175 18.4697,8.2725 26.0227,8.2725 C33.5757,8.2725 39.7207,14.4175 39.7207,21.9705 L39.7207,33.1175 L12.3247,33.1175 L9.2167,33.1175 L7.1717,33.1175 L4.0637,33.1175 L1.5537,33.1175 C0.6957,33.1175 -0.0003,33.8125 -0.0003,34.6715 L-0.0003,64.1805 C-0.0003,71.8005 6.1987,77.9995 13.8187,77.9995 L38.2267,77.9995 C45.8467,77.9995 52.0447,71.8005 52.0447,64.1805 L52.0447,34.6715 C52.0447,33.8125 51.3497,33.1175 50.4917,33.1175 Z" id="Fill-7" fill="#4E4E4E" mask="url(#mask-2)"></path>
                </g>
            </g>
        </g>
    </g>
</svg>