<?xml version="1.0" encoding="UTF-8"?>
<svg width="160px" height="187px" viewBox="0 0 160 187" version="1.1" xmlns="http://www.w3.org/2000/svg" xmlns:xlink="http://www.w3.org/1999/xlink">
    <!-- Generator: Sketch 48.2 (47327) - http://www.bohemiancoding.com/sketch -->
    <title>Group 3</title>
    <desc>Created with Sketch.</desc>
    <defs></defs>
    <g id="onboarding-pass-copy" stroke="none" stroke-width="1" fill="none" fill-rule="evenodd" transform="translate(-150.000000, -37.000000)">
        <g id="Group-3" transform="translate(150.000000, 30.000000)">
            <circle id="Oval-4" fill="#E3EBEF" cx="80" cy="114" r="80"></circle>
            <g id="Group-2" transform="translate(46.000000, 0.000000)">
                <g id="noun_470789_FFFFFF" transform="translate(0.000000, 53.729469)" fill="#4E4E4E" fill-rule="nonzero">
                    <path d="M25.1015625,14.1558496 C25.3440897,14.2778828 25.4653533,14.2778828 25.7078804,14.2778828 C26.0716712,14.2778828 26.5567255,14.0338164 26.7992527,13.6677169 C26.9205163,13.5456837 26.9205163,13.4236505 27.0417799,13.4236505 C27.4055707,12.8134846 27.2843071,12.0812854 26.6779891,11.7151859 C26.0716712,11.3490863 25.3440897,11.4711195 24.9802989,12.0812854 C24.8590353,12.2033186 24.8590353,12.3253518 24.7377717,12.447385 C24.373981,13.0575509 24.4952446,13.7897501 25.1015625,14.1558496 Z" id="Shape"></path>
                    <path d="M28.3756793,11.5931527 C28.6182065,11.5931527 28.8607337,11.5931527 28.9819973,11.4711195 C30.0733696,10.7389204 31.1647418,10.6168872 31.1647418,10.6168872 C31.7710598,10.494854 32.2561141,9.88468809 32.2561141,9.27452216 C32.1348505,8.66435623 31.5285326,8.17622348 30.9222147,8.17622348 C30.8009511,8.17622348 29.345788,8.42028986 27.7693614,9.39655535 C27.1630435,9.7626549 27.0417799,10.494854 27.4055707,11.10502 C27.6480978,11.3490863 28.0118886,11.5931527 28.3756793,11.5931527 Z" id="Shape"></path>
                    <path d="M24.6165082,49.5454736 C23.8889266,49.5454736 23.4038723,50.0336064 23.4038723,50.7658055 L23.4038723,51.9861374 C23.4038723,52.7183365 23.8889266,53.2064692 24.6165082,53.2064692 C25.3440897,53.2064692 25.829144,52.7183365 25.829144,51.9861374 L25.829144,50.7658055 C25.829144,50.0336064 25.2228261,49.5454736 24.6165082,49.5454736 Z" id="Shape"></path>
                    <path d="M30.4371603,49.5454736 C30.4371603,48.8132745 29.952106,48.3251418 29.2245245,48.3251418 C28.4969429,48.3251418 28.0118886,48.8132745 28.0118886,49.5454736 L28.0118886,53.2064692 C28.0118886,53.9386683 28.4969429,54.4268011 29.2245245,54.4268011 C29.952106,54.4268011 30.4371603,53.9386683 30.4371603,53.2064692 L30.4371603,49.5454736 Z" id="Shape"></path>
                    <path d="M33.8325408,55.036967 C34.5601223,55.036967 35.0451766,54.5488343 35.0451766,53.8166352 L35.0451766,48.9353077 C35.0451766,48.2031086 34.5601223,47.7149758 33.8325408,47.7149758 C33.1049592,47.7149758 32.6199049,48.2031086 32.6199049,48.9353077 L32.6199049,53.8166352 C32.6199049,54.4268011 33.1049592,55.036967 33.8325408,55.036967 Z" id="Shape"></path>
                    <path d="M39.5319293,53.2064692 L39.5319293,49.5454736 C39.5319293,48.8132745 39.046875,48.3251418 38.3192935,48.3251418 C37.591712,48.3251418 37.1066576,48.8132745 37.1066576,49.5454736 L37.1066576,53.2064692 C37.1066576,53.9386683 37.591712,54.4268011 38.3192935,54.4268011 C39.046875,54.4268011 39.5319293,53.8166352 39.5319293,53.2064692 Z" id="Shape"></path>
                    <path d="M42.9273098,53.2064692 C43.6548913,53.2064692 44.1399457,52.7183365 44.1399457,51.9861374 L44.1399457,50.7658055 C44.1399457,50.0336064 43.6548913,49.5454736 42.9273098,49.5454736 C42.1997283,49.5454736 41.7146739,50.0336064 41.7146739,50.7658055 L41.7146739,51.9861374 C41.7146739,52.5963033 42.3209918,53.2064692 42.9273098,53.2064692 Z" id="Shape"></path>
                    <path d="M25.7078804,41.1251838 C26.3141984,41.1251838 26.9205163,40.5150179 26.7992527,39.7828187 C26.7992527,39.0506196 26.1929348,38.5624869 25.4653533,38.6845201 C23.2826087,38.8065532 18.9171196,40.2709515 17.7044837,45.1522789 C17.5832201,45.7624449 17.9470109,46.494644 18.5533288,46.6166772 L18.795856,46.6166772 C19.2809103,46.6166772 19.8872283,46.2505776 20.0084918,45.6404117 C21.2211277,41.4912833 25.5866168,41.1251838 25.7078804,41.1251838 Z" id="Shape"></path>
                    <path d="M49.8393342,70.6572149 C49.2330163,70.5351817 48.5054348,70.9012812 48.3841712,71.5114472 C47.2927989,75.7826087 43.0485734,76.0266751 42.9273098,76.1487083 C42.3209918,76.1487083 41.7146739,76.7588742 41.8359375,77.4910733 C41.8359375,78.1012392 42.4422554,78.589372 43.0485734,78.589372 L43.169837,78.589372 C45.3525815,78.4673388 49.7180707,77.0029406 50.9307065,72.1216131 C50.9307065,71.5114472 50.4456522,70.7792481 49.8393342,70.6572149 Z" id="Shape"></path>
                    <path d="M33.7112772,60.6504936 C31.7710598,60.6504936 30.1946332,62.236925 30.1946332,64.189456 C30.1946332,66.141987 31.7710598,67.7284184 33.7112772,67.7284184 C35.6514946,67.7284184 37.2279212,66.141987 37.2279212,64.189456 C37.2279212,62.236925 35.6514946,60.6504936 33.7112772,60.6504936 Z M33.7112772,65.2877547 C33.1049592,65.2877547 32.6199049,64.7996219 32.6199049,64.189456 C32.6199049,63.5792901 33.1049592,63.0911573 33.7112772,63.0911573 C34.3175951,63.0911573 34.8026495,63.5792901 34.8026495,64.189456 C34.8026495,64.7996219 34.3175951,65.2877547 33.7112772,65.2877547 Z" id="Shape"></path>
                    <path d="M25.1015625,60.6504936 C23.1613451,60.6504936 21.5849185,62.236925 21.5849185,64.189456 C21.5849185,66.141987 23.1613451,67.7284184 25.1015625,67.7284184 C27.0417799,67.7284184 28.6182065,66.141987 28.6182065,64.189456 C28.6182065,62.236925 27.0417799,60.6504936 25.1015625,60.6504936 Z M25.1015625,65.2877547 C24.4952446,65.2877547 24.0101902,64.7996219 24.0101902,64.189456 C24.0101902,63.5792901 24.4952446,63.0911573 25.1015625,63.0911573 C25.7078804,63.0911573 26.1929348,63.5792901 26.1929348,64.189456 C26.1929348,64.7996219 25.7078804,65.2877547 25.1015625,65.2877547 Z" id="Shape"></path>
                    <path d="M45.8376359,64.189456 C45.8376359,62.236925 44.2612092,60.6504936 42.3209918,60.6504936 C40.3807745,60.6504936 38.8043478,62.236925 38.8043478,64.189456 C38.8043478,66.141987 40.3807745,67.7284184 42.3209918,67.7284184 C44.2612092,67.7284184 45.8376359,66.141987 45.8376359,64.189456 Z M41.3508832,64.189456 C41.3508832,63.5792901 41.8359375,63.0911573 42.4422554,63.0911573 C43.0485734,63.0911573 43.5336277,63.5792901 43.5336277,64.189456 C43.5336277,64.7996219 43.0485734,65.2877547 42.4422554,65.2877547 C41.8359375,65.2877547 41.3508832,64.7996219 41.3508832,64.189456 Z" id="Shape"></path>
                    <path d="M28.3756793,24.6507036 C30.9222147,24.6507036 33.1049592,22.5761395 33.1049592,19.8914094 C33.1049592,17.3287125 31.0434783,15.1321151 28.3756793,15.1321151 C25.829144,15.1321151 23.6463995,17.2066793 23.6463995,19.8914094 C23.767663,22.5761395 25.829144,24.6507036 28.3756793,24.6507036 Z M28.3756793,17.5727788 C29.5883152,17.5727788 30.6796875,18.5490443 30.6796875,19.8914094 C30.6796875,21.2337744 29.7095788,22.2100399 28.3756793,22.2100399 C27.0417799,22.2100399 26.0716712,21.2337744 26.0716712,19.8914094 C26.0716712,18.5490443 27.1630435,17.5727788 28.3756793,17.5727788 Z" id="Shape"></path>
                    <path d="M38.9256114,24.6507036 C41.4721467,24.6507036 43.6548913,22.5761395 43.6548913,19.8914094 C43.6548913,17.3287125 41.5934103,15.1321151 38.9256114,15.1321151 C36.2578125,15.1321151 34.1963315,17.2066793 34.1963315,19.8914094 C34.1963315,22.5761395 36.2578125,24.6507036 38.9256114,24.6507036 Z M38.9256114,17.5727788 C40.1382473,17.5727788 41.2296196,18.5490443 41.2296196,19.8914094 C41.2296196,21.2337744 40.2595109,22.2100399 38.9256114,22.2100399 C37.591712,22.2100399 36.6216033,21.2337744 36.6216033,19.8914094 C36.6216033,18.5490443 37.591712,17.5727788 38.9256114,17.5727788 Z" id="Shape"></path>
                    <path d="M24.7377717,28.189666 C24.7377717,28.9218652 25.2228261,29.4099979 25.9504076,29.4099979 L40.8658288,29.4099979 C41.5934103,29.4099979 42.0784647,28.9218652 42.0784647,28.189666 C42.0784647,27.4574669 41.5934103,26.9693342 40.8658288,26.9693342 L25.9504076,26.9693342 C25.2228261,26.9693342 24.7377717,27.4574669 24.7377717,28.189666 Z" id="Shape"></path>
                    <path d="M48.5054348,33.437093 L48.5054348,18.5490443 C48.5054348,10.8609536 42.563519,4.51522789 35.0451766,3.90506196 L35.0451766,1.70846461 C35.0451766,0.97626549 34.5601223,0.488132745 33.8325408,0.488132745 C33.1049592,0.488132745 32.6199049,0.97626549 32.6199049,1.70846461 L32.6199049,3.78302878 C25.1015625,4.39319471 19.1596467,10.7389204 19.1596467,18.4270111 L19.1596467,33.3150599 C5.578125,33.5591262 0.606317935,44.2980466 0.606317935,54.4268011 L0.606317935,72.9758454 L0.606317935,75.4165091 L0.606317935,76.2707414 C0.606317935,79.3215711 3.15285326,81.884268 6.18444293,81.884268 L6.79076087,81.884268 C9.70108696,81.884268 12.0050951,79.6876707 12.3688859,76.8809074 C13.8240489,79.5656375 16.0067935,81.7622348 18.5533288,83.3486662 L18.5533288,100.067213 L18.189538,100.067213 C13.7027853,100.067213 10.0648777,103.728208 10.0648777,108.121403 C10.0648777,110.073934 11.6413043,111.538332 13.5815217,111.538332 L31.8923234,111.538332 C32.6199049,111.538332 33.1049592,111.0502 33.1049592,110.318 L33.1049592,102.507876 L33.1049592,101.409578 L33.1049592,86.1554295 L35.7727582,86.1554295 L35.7727582,101.409578 L35.7727582,102.507876 L35.7727582,110.562067 C35.7727582,111.294266 36.2578125,111.782399 36.985394,111.782399 L55.2961957,111.782399 C57.236413,111.782399 58.8128397,110.195967 58.8128397,108.365469 C58.8128397,103.850242 55.1749321,100.311279 50.6881793,100.311279 L50.3243886,100.311279 L50.3243886,82.8605335 L50.3243886,82.6164671 C52.3858696,81.1520689 54.0835598,79.1995379 55.2961957,77.0029406 C55.6599864,79.8097038 57.9639946,82.0063012 60.8743207,82.0063012 L61.4806386,82.0063012 C64.5122283,82.0063012 67.0587636,79.4436043 67.0587636,76.3927746 L67.0587636,75.5385423 L67.0587636,73.0978786 L67.0587636,54.5488343 C66.9375,44.4200798 62.0869565,33.6811594 48.5054348,33.437093 Z M33.8325408,6.2236925 C40.6233016,6.2236925 46.080163,11.7151859 46.080163,18.5490443 L46.080163,33.3150599 C44.1399457,32.5828607 41.9572011,32.094728 39.7744565,32.094728 L27.890625,32.094728 C25.7078804,32.094728 23.5251359,32.5828607 21.5849185,33.3150599 L21.5849185,18.5490443 C21.5849185,11.7151859 27.0417799,6.2236925 33.8325408,6.2236925 Z M3.03158967,70.1690821 L4.85054348,70.1690821 C5.578125,70.1690821 6.06317935,69.6809494 6.06317935,68.9487503 C6.06317935,68.2165511 5.578125,67.7284184 4.85054348,67.7284184 L3.03158967,67.7284184 L3.03158967,54.5488343 C3.03158967,40.3929847 11.3987772,36.8540223 16.6131114,36.1218231 C12.4901495,39.4167192 9.94361413,44.4200798 9.94361413,50.1556396 L9.94361413,52.8403697 C9.94361413,52.8403697 9.94361413,52.8403697 9.94361413,52.9624029 L9.94361413,73.2199118 L3.03158967,73.2199118 L3.03158967,70.1690821 L3.03158967,70.1690821 Z M9.94361413,76.3927746 C9.94361413,78.1012392 8.48845109,79.5656375 6.79076087,79.5656375 L6.18444293,79.5656375 C4.48675272,79.5656375 3.03158967,78.1012392 3.03158967,76.3927746 L3.03158967,75.5385423 L9.94361413,75.5385423 L9.94361413,76.3927746 L9.94361413,76.3927746 Z M30.5584239,100.189246 L28.0118886,100.189246 C27.2843071,100.189246 26.7992527,100.677379 26.7992527,101.409578 C26.7992527,102.141777 27.2843071,102.62991 28.0118886,102.62991 L30.5584239,102.62991 L30.5584239,109.341735 L13.4602582,109.341735 C12.8539402,109.341735 12.3688859,108.853602 12.3688859,108.365469 C12.3688859,105.192607 14.9154212,102.751943 18.0682745,102.751943 C20.251019,102.751943 22.3125,103.606175 23.767663,105.192607 C24.0101902,105.436673 24.373981,105.558706 24.6165082,105.558706 C24.9802989,105.558706 25.2228261,105.436673 25.4653533,105.192607 C25.9504076,104.704474 25.9504076,103.972275 25.4653533,103.484142 C24.1314538,102.141777 22.5550272,101.165511 20.857337,100.677379 L20.857337,84.8130645 C23.0400815,85.6672968 25.3440897,86.2774627 27.7693614,86.2774627 L30.4371603,86.2774627 L30.4371603,100.189246 L30.5584239,100.189246 Z M47.7778533,100.555346 C46.080163,101.043478 44.3824728,102.019744 43.169837,103.362109 C42.6847826,103.850242 42.6847826,104.582441 43.169837,105.070573 C43.4123641,105.31464 43.6548913,105.436673 44.0186821,105.436673 C44.3824728,105.436673 44.625,105.31464 44.8675272,105.070573 C46.3226902,103.484142 48.3841712,102.62991 50.5669158,102.62991 C53.719769,102.62991 56.2663043,105.192607 56.2663043,108.243436 C56.2663043,108.853602 55.78125,109.219702 55.1749321,109.219702 L38.1980299,109.219702 L38.1980299,102.507876 L40.7445652,102.507876 C41.4721467,102.507876 41.9572011,102.019744 41.9572011,101.287545 C41.9572011,100.555346 41.4721467,100.067213 40.7445652,100.067213 L38.1980299,100.067213 L38.1980299,86.1554295 L39.6531929,86.1554295 C42.563519,86.1554295 45.3525815,85.4232304 47.7778533,84.2028986 L47.7778533,100.555346 Z M39.6531929,83.7147658 L27.890625,83.7147658 C19.4021739,83.7147658 12.4901495,76.7588742 12.4901495,68.2165511 L12.4901495,50.0336064 C12.4901495,41.4912833 19.4021739,34.5353917 27.890625,34.5353917 L39.6531929,34.5353917 C48.141644,34.5353917 55.0536685,41.4912833 55.0536685,50.0336064 L55.0536685,52.7183365 L55.0536685,52.7183365 L55.0536685,68.3385843 C54.9324049,76.7588742 48.141644,83.7147658 39.6531929,83.7147658 Z M64.5122283,76.3927746 C64.5122283,78.1012392 63.0570652,79.5656375 61.359375,79.5656375 L60.7530571,79.5656375 C59.0553668,79.5656375 57.6002038,78.1012392 57.6002038,76.3927746 L57.6002038,75.5385423 L64.5122283,75.5385423 L64.5122283,76.3927746 L64.5122283,76.3927746 Z M57.6002038,73.0978786 L57.6002038,68.3385843 L57.6002038,68.094518 L57.6002038,50.0336064 C57.6002038,44.4200798 55.0536685,39.294686 50.9307065,35.99979 C56.1450408,36.8540223 64.5122283,40.3929847 64.5122283,54.4268011 L64.5122283,67.6063852 L62.6932745,67.6063852 C61.9656929,67.6063852 61.4806386,68.094518 61.4806386,68.8267171 C61.4806386,69.5589162 61.9656929,70.0470489 62.6932745,70.0470489 L64.5122283,70.0470489 L64.5122283,72.9758454 L57.6002038,72.9758454 L57.6002038,73.0978786 Z" id="Shape"></path>
                </g>
                <g id="Group" transform="translate(34.265625, 0.000000)">
                    <path d="M28.6542959,47.9954905 C19.562711,45.7901799 12.8080551,37.5514585 12.8080551,27.7250902 C12.8080551,16.2098198 22.0841555,6.87484868 33.5268051,6.87484868 C44.9694548,6.87484868 54.2455551,16.2098198 54.2455551,27.7250902 C54.2455551,37.5514585 47.4908993,45.7901799 38.3993144,47.9954905 L33.5268051,60.6043173 L28.6542959,47.9954905 Z" id="Combined-Shape-Copy" stroke="#4E4E4E" stroke-width="2.4" fill="#F9FBFC" stroke-linecap="round" stroke-linejoin="round" transform="translate(33.526805, 33.739583) scale(-1, 1) rotate(-45.000000) translate(-33.526805, -33.739583) "></path>
                    <text id="Beta" font-family="Roboto-Bold, Roboto" font-size="12.8" font-weight="bold" fill="#4E4E4E">
                        <tspan x="24.7140625" y="33.6521739">Beta</tspan>
                    </text>
                </g>
            </g>
        </g>
    </g>
</svg>